<?xml version="1.0" encoding="utf-8"?>
<!-- Generator: Adobe Illustrator 21.1.0, SVG Export Plug-In . SVG Version: 6.00 Build 0)  -->
<svg version="1.1" id="Layer_1" xmlns="http://www.w3.org/2000/svg" xmlns:xlink="http://www.w3.org/1999/xlink" x="0px" y="0px"
	 viewBox="0 0 200 200" style="enable-background:new 0 0 200 200;" xml:space="preserve">
<style type="text/css">
	.st0{opacity:0.1;enable-background:new    ;}
	.st1{fill:#D31845;}
	.st2{fill:#EA285F;}
	.st3{opacity:0.28;}
	.st4{fill:#FFFFFF;}
	.st5{fill:none;stroke:#F7578C;stroke-width:1.9286;stroke-linecap:round;stroke-linejoin:round;stroke-dasharray:1.9301,5.7904;}
	.st6{fill:#B71140;}
	.st7{opacity:0.16;}
</style>
<ellipse id="XMLID_14_" class="st0" cx="99.9" cy="190.9" rx="85.5" ry="5.2"/>
<circle id="XMLID_13_" class="st1" cx="100.7" cy="96.7" r="92.5"/>
<circle id="XMLID_12_" class="st2" cx="98.8" cy="99.8" r="91.1"/>
<g class="st3">
	<path id="XMLID_11_" class="st4" d="M161.7,33.7L28.3,157.3c1.9,2.4,4,4.6,6.1,6.8L168,40.3C166,38,163.9,35.8,161.7,33.7z"/>
	<path id="XMLID_10_" class="st4" d="M184.6,68.8c-2.6-7.1-6-13.9-10.1-20L42.3,171.1c5.9,4.6,12.3,8.6,19.2,11.7L184.6,68.8z"/>
	<path id="XMLID_9_" class="st4" d="M12.6,129.2c2.6,7.7,6.3,14.9,10.7,21.5L155.5,28.3c-6.2-5-13.1-9.1-20.6-12.4L12.6,129.2z"/>
</g>
<g id="XMLID_8_">
	<circle id="XMLID_22_" class="st5" cx="98.5" cy="100" r="83.6"/>
</g>
<circle id="XMLID_7_" class="st6" cx="98.8" cy="99.6" r="76.3"/>
<circle id="XMLID_6_" class="st1" cx="98.8" cy="99.6" r="72.9"/>
<g class="st7">
	<path id="XMLID_5_" class="st4" d="M27.6,115.4c1.8,8.2,5,15.9,9.3,22.8L142,40.8c-6.6-4.8-14-8.6-22-11L27.6,115.4z"/>
	<path id="XMLID_4_" class="st4" d="M148.3,46.1L41.7,144.9c1.9,2.4,3.9,4.7,6.1,6.8l106.9-99C152.7,50.4,150.6,48.2,148.3,46.1z"/>
	<path id="XMLID_3_" class="st4" d="M169.7,82.6c-1.8-7.6-4.8-14.8-8.8-21.3l-105,97.2c6.2,4.5,13.1,8.1,20.5,10.4L169.7,82.6z"/>
</g>
<path id="XMLID_2_" class="st4" d="M68.3,113.1c-0.9,12.4-2.7,14.1-14.5,15c11.8,1,13.6,2.7,14.5,15c0.9-12.4,2.7-14.1,14.5-15
	C71,127.2,69.2,125.5,68.3,113.1z"/>
<path id="XMLID_1_" class="st4" d="M150.5,9.8c-1.4,19.8-4.4,22.5-23.2,24.1c18.9,1.5,21.8,4.3,23.2,24.1
	c1.4-19.8,4.4-22.5,23.2-24.1C154.8,32.3,151.9,29.6,150.5,9.8z"/>
<g>
	<path class="st6" d="M54.9,82.3v32h-8V97.1c0-2.5-0.1-4-0.2-4.5s-0.4-0.9-1-1.1c-0.5-0.3-1.7-0.4-3.6-0.4h-0.8v-3.7
		c3.9-0.8,6.8-2.5,8.8-5.1H54.9z"/>
	<path class="st6" d="M75.4,82.3v5.1h-9.9v5.4c1.2-1.5,2.8-2.2,4.8-2.2c2.2,0,3.9,0.6,5,1.9c1.1,1.2,1.7,3.6,1.7,7.1v4.6
		c0,2.3-0.1,3.9-0.3,5c-0.2,1.1-0.7,2-1.4,2.9c-0.7,0.9-1.7,1.6-3,2.1s-2.8,0.7-4.7,0.7c-2.1,0-3.9-0.4-5.4-1.1
		c-1.6-0.7-2.7-1.8-3.3-3.2c-0.7-1.4-1-3.6-1-6.6v-1.7h8v2c0,2.1,0.1,3.5,0.2,4.4s0.6,1.3,1.5,1.3c0.4,0,0.7-0.1,1-0.4
		s0.4-0.5,0.4-0.8s0-1.6,0.1-3.8v-6.4c0-1.2-0.1-2-0.4-2.5c-0.3-0.4-0.7-0.7-1.2-0.7c-0.4,0-0.7,0.1-0.9,0.3
		c-0.3,0.2-0.4,0.5-0.5,0.7C66,96.7,66,97.3,66,98.2h-7.9L58.4,82h17C75.4,82,75.4,82.3,75.4,82.3z"/>
	<path class="st6" d="M98.6,93.1v10.7c0,2.4-0.1,4.2-0.4,5.3s-0.8,2.1-1.6,3.1s-1.8,1.7-3,2.1s-2.5,0.6-3.9,0.6
		c-1.9,0-3.5-0.2-4.8-0.7c-1.3-0.4-2.3-1.1-3-2.1c-0.8-0.9-1.3-1.9-1.6-3c-0.3-1-0.5-2.7-0.5-4.9V93.1c0-2.9,0.3-5.1,0.8-6.6
		s1.5-2.6,3-3.5s3.3-1.3,5.5-1.3c1.8,0,3.3,0.3,4.7,0.9c1.4,0.6,2.4,1.4,3.1,2.2c0.7,0.9,1.2,1.9,1.4,3S98.6,90.7,98.6,93.1z
		 M90.6,90.4c0-1.7-0.1-2.8-0.2-3.2c-0.1-0.4-0.6-0.6-1.2-0.6c-0.6,0-1,0.2-1.2,0.7s-0.3,1.5-0.3,3.2v15.6c0,1.9,0.1,3,0.3,3.4
		s0.6,0.6,1.2,0.6c0.6,0,1-0.2,1.2-0.7s0.3-1.5,0.3-3v-16C90.7,90.4,90.6,90.4,90.6,90.4z"/>
	<path class="st6" d="M120.3,93.1v10.7c0,2.4-0.1,4.2-0.4,5.3c-0.3,1.1-0.8,2.1-1.6,3.1s-1.8,1.7-3,2.1s-2.5,0.6-3.9,0.6
		c-1.9,0-3.5-0.2-4.8-0.7c-1.3-0.4-2.3-1.1-3-2.1c-0.8-0.9-1.3-1.9-1.6-3c-0.3-1-0.5-2.7-0.5-4.9V93.1c0-2.9,0.3-5.1,0.8-6.6
		s1.5-2.6,3-3.5s3.3-1.3,5.5-1.3c1.8,0,3.3,0.3,4.7,0.9c1.4,0.6,2.4,1.4,3.1,2.2c0.7,0.9,1.2,1.9,1.4,3S120.3,90.7,120.3,93.1z
		 M112.3,90.4c0-1.7-0.1-2.8-0.2-3.2c-0.1-0.4-0.6-0.6-1.2-0.6s-1,0.2-1.2,0.7s-0.3,1.5-0.3,3.2v15.6c0,1.9,0.1,3,0.3,3.4
		s0.6,0.6,1.2,0.6s1-0.2,1.2-0.7s0.3-1.5,0.3-3v-16C112.4,90.4,112.3,90.4,112.3,90.4z"/>
	<path class="st6" d="M142.1,93.1v10.7c0,2.4-0.1,4.2-0.4,5.3s-0.8,2.1-1.6,3.1s-1.8,1.7-3,2.1s-2.5,0.6-3.9,0.6
		c-1.9,0-3.5-0.2-4.8-0.7c-1.3-0.4-2.3-1.1-3-2.1c-0.8-0.9-1.3-1.9-1.6-3c-0.3-1-0.5-2.7-0.5-4.9V93.1c0-2.9,0.3-5.1,0.8-6.6
		s1.5-2.6,3-3.5s3.3-1.3,5.5-1.3c1.8,0,3.3,0.3,4.7,0.9c1.4,0.6,2.4,1.4,3.1,2.2c0.7,0.9,1.2,1.9,1.4,3
		C141.9,88.9,142.1,90.7,142.1,93.1z M134.1,90.4c0-1.7-0.1-2.8-0.2-3.2c-0.1-0.4-0.6-0.6-1.2-0.6c-0.6,0-1,0.2-1.2,0.7
		s-0.3,1.5-0.3,3.2v15.6c0,1.9,0.1,3,0.3,3.4s0.6,0.6,1.2,0.6s1-0.2,1.2-0.7s0.3-1.5,0.3-3v-16C134.2,90.4,134.1,90.4,134.1,90.4z"
		/>
</g>
<g>
	<path class="st4" d="M53.7,81.5v32h-8V96.4c0-2.5-0.1-4-0.2-4.5s-0.4-0.9-1-1.1c-0.5-0.3-1.7-0.4-3.6-0.4h-0.8v-3.7
		c3.9-0.8,6.8-2.5,8.8-5.1L53.7,81.5C53.7,81.6,53.7,81.5,53.7,81.5z"/>
	<path class="st4" d="M74.2,81.5v5.1h-9.9V92c1.2-1.5,2.8-2.2,4.8-2.2c2.2,0,3.9,0.6,5,1.9c1.1,1.2,1.7,3.6,1.7,7.1v4.6
		c0,2.3-0.1,3.9-0.3,5c-0.2,1.1-0.7,2-1.4,2.9c-0.7,0.9-1.7,1.6-3,2.1s-2.8,0.7-4.7,0.7c-2.1,0-3.9-0.4-5.4-1.1
		c-1.6-0.7-2.7-1.8-3.3-3.2c-0.7-1.4-1-3.6-1-6.6v-1.7h8v2c0,2.1,0.1,3.5,0.2,4.4s0.6,1.3,1.5,1.3c0.4,0,0.7-0.1,1-0.4
		s0.4-0.5,0.4-0.8s0-1.6,0.1-3.8v-6.4c0-1.2-0.1-2-0.4-2.5c-0.3-0.4-0.7-0.7-1.2-0.7c-0.4,0-0.7,0.1-0.9,0.3
		c-0.3,0.2-0.4,0.5-0.5,0.7c-0.1,0.3-0.1,0.9-0.1,1.8h-7.9l0.3-16.2h17C74.2,81.2,74.2,81.5,74.2,81.5z"/>
	<path class="st4" d="M97.4,92.3V103c0,2.4-0.1,4.2-0.4,5.3c-0.3,1.1-0.8,2.1-1.6,3.1s-1.8,1.7-3,2.1c-1.2,0.4-2.5,0.6-3.9,0.6
		c-1.9,0-3.5-0.2-4.8-0.7c-1.3-0.4-2.3-1.1-3-2.1c-0.8-0.9-1.3-1.9-1.6-3c-0.3-1-0.5-2.7-0.5-4.9V92.3c0-2.9,0.3-5.1,0.8-6.6
		s1.5-2.6,3-3.5c1.5-0.9,3.3-1.3,5.5-1.3c1.8,0,3.3,0.3,4.7,0.9c1.4,0.6,2.4,1.4,3.1,2.2c0.7,0.9,1.2,1.9,1.4,3
		C97.3,88.2,97.4,89.9,97.4,92.3z M89.4,89.7c0-1.7-0.1-2.8-0.2-3.2c-0.1-0.4-0.6-0.6-1.2-0.6c-0.6,0-1,0.2-1.2,0.7
		s-0.3,1.5-0.3,3.2v15.6c0,1.9,0.1,3,0.3,3.4s0.6,0.6,1.2,0.6c0.6,0,1-0.2,1.2-0.7s0.3-1.5,0.3-3v-16H89.4z"/>
	<path class="st4" d="M119.1,92.3V103c0,2.4-0.1,4.2-0.4,5.3c-0.3,1.1-0.8,2.1-1.6,3.1s-1.8,1.7-3,2.1c-1.2,0.4-2.5,0.6-3.9,0.6
		c-1.9,0-3.5-0.2-4.8-0.7c-1.3-0.4-2.3-1.1-3-2.1c-0.8-0.9-1.3-1.9-1.6-3c-0.3-1-0.5-2.7-0.5-4.9V92.3c0-2.9,0.3-5.1,0.8-6.6
		s1.5-2.6,3-3.5c1.5-0.9,3.3-1.3,5.5-1.3c1.8,0,3.3,0.3,4.7,0.9c1.4,0.6,2.4,1.4,3.1,2.2c0.7,0.9,1.2,1.9,1.4,3
		C119,88.2,119.1,89.9,119.1,92.3z M111.1,89.7c0-1.7-0.1-2.8-0.2-3.2c-0.1-0.4-0.6-0.6-1.2-0.6c-0.6,0-1,0.2-1.2,0.7
		s-0.3,1.5-0.3,3.2v15.6c0,1.9,0.1,3,0.3,3.4s0.6,0.6,1.2,0.6c0.6,0,1-0.2,1.2-0.7s0.3-1.5,0.3-3v-16H111.1z"/>
	<path class="st4" d="M140.8,92.3V103c0,2.4-0.1,4.2-0.4,5.3c-0.3,1.1-0.8,2.1-1.6,3.1s-1.8,1.7-3,2.1c-1.2,0.4-2.5,0.6-3.9,0.6
		c-1.9,0-3.5-0.2-4.8-0.7c-1.3-0.4-2.3-1.1-3-2.1c-0.8-0.9-1.3-1.9-1.6-3c-0.3-1-0.5-2.7-0.5-4.9V92.3c0-2.9,0.3-5.1,0.8-6.6
		s1.5-2.6,3-3.5c1.5-0.9,3.3-1.3,5.5-1.3c1.8,0,3.3,0.3,4.7,0.9c1.4,0.6,2.4,1.4,3.1,2.2c0.7,0.9,1.2,1.9,1.4,3
		C140.7,88.2,140.8,89.9,140.8,92.3z M132.8,89.7c0-1.7-0.1-2.8-0.2-3.2s-0.6-0.6-1.2-0.6c-0.6,0-1,0.2-1.2,0.7S130,88,130,89.7
		v15.6c0,1.9,0.1,3,0.3,3.4s0.6,0.6,1.2,0.6s1-0.2,1.2-0.7s0.3-1.5,0.3-3V89.7H132.8z"/>
</g>
<g>
	<g>
		<path class="st6" d="M161.5,97.4h-4.8c0.7,0.7,1.2,1.6,1.4,2.9h3.4v1.8h-3.4c-0.4,3-2.7,4.8-6.1,5c2.1,2.2,4.6,5.2,7,8.1h-3.9
			c-2-2.4-4.2-5.1-6.8-7.8v-2.5h1.8c2.8,0,4.3-1.1,4.6-2.7h-6.3v-1.8h6.2c-0.4-1.3-1.8-2.1-4.1-2.1h-2.2v-2.6h13.2V97.4z"/>
	</g>
	<g>
		<path class="st4" d="M160.6,96.9h-4.8c0.7,0.7,1.2,1.6,1.4,2.9h3.4v1.8h-3.4c-0.4,3-2.7,4.8-6.1,5c2.1,2.2,4.6,5.2,7,8.1h-3.9
			c-2-2.4-4.2-5.1-6.8-7.8v-2.5h1.8c2.8,0,4.3-1.1,4.6-2.7h-6.3v-1.8h6.2c-0.4-1.3-1.8-2.1-4.1-2.1h-2.2v-2.6h13.2V96.9z"/>
	</g>
</g>
</svg>
