<?xml version="1.0" encoding="utf-8"?>
<!-- Generator: Adobe Illustrator 21.1.0, SVG Export Plug-In . SVG Version: 6.00 Build 0)  -->
<svg version="1.1" id="Layer_1" xmlns="http://www.w3.org/2000/svg" xmlns:xlink="http://www.w3.org/1999/xlink" x="0px" y="0px"
	 viewBox="0 0 200 200" style="enable-background:new 0 0 200 200;" xml:space="preserve">
<style type="text/css">
	.st0{opacity:0.1;enable-background:new    ;}
	.st1{opacity:0.7;fill:#4F5766;enable-background:new    ;}
	.st2{opacity:0.7;fill:#666D7C;enable-background:new    ;}
	.st3{opacity:0.28;}
	.st4{fill:#FFFFFF;}
	.st5{opacity:0.7;}
	.st6{fill:none;stroke:#7F8999;stroke-width:1.9286;stroke-linecap:round;stroke-linejoin:round;stroke-dasharray:1.9233,5.77;}
	.st7{opacity:0.16;}
	.st8{fill:#4F5766;}
</style>
<g>
	<ellipse class="st0" cx="98.6" cy="190.7" rx="86.4" ry="5.3"/>
	<circle class="st1" cx="99.4" cy="95.5" r="93.5"/>
	<circle class="st2" cx="97.5" cy="98.6" r="92.1"/>
	<g class="st3">
		<path class="st4" d="M161.1,31.8l-134.9,125c2,2.4,4,4.7,6.2,6.8L167.5,38.5C165.5,36.1,163.3,33.9,161.1,31.8z"/>
		<path class="st4" d="M184.2,67.3c-2.6-7.2-6-14-10.3-20.3L40.4,170.7c5.9,4.7,12.4,8.7,19.4,11.8L184.2,67.3z"/>
		<path class="st4" d="M10.4,128.4c2.7,7.8,6.3,15,10.9,21.7L154.9,26.3c-6.3-5-13.3-9.2-20.8-12.5L10.4,128.4z"/>
	</g>
	<g class="st5">
		<circle class="st6" cx="97.2" cy="98.8" r="84.5"/>
	</g>
	<circle class="st1" cx="97.5" cy="98.4" r="77.1"/>
	<circle class="st2" cx="97.5" cy="98.4" r="73.7"/>
	<g class="st7">
		<path class="st4" d="M25.5,114.4c1.8,8.3,5.1,16.1,9.4,23L141.2,39c-6.6-4.9-14.1-8.7-22.2-11.2L25.5,114.4z"/>
		<path class="st4" d="M147.6,44.3L39.7,144.2c1.9,2.4,4,4.7,6.2,6.9L153.9,51C152,48.6,149.8,46.4,147.6,44.3z"/>
		<path class="st4" d="M169.2,81.2c-1.8-7.7-4.9-14.9-8.9-21.5L54.1,158c6.2,4.6,13.2,8.1,20.7,10.6L169.2,81.2z"/>
	</g>
	<path class="st4" d="M66.7,112.1c-0.9,12.5-2.8,14.2-14.7,15.2c11.9,1,13.8,2.7,14.7,15.2c0.9-12.5,2.8-14.2,14.7-15.2
		C69.4,126.3,67.6,124.6,66.7,112.1z"/>
	<path class="st4" d="M149.7,9.7c-1.5,20-4.4,22.8-23.5,24.3c19.1,1.5,22,4.3,23.5,24.3c1.5-20,4.4-22.8,23.5-24.3
		C154.1,32.5,151.2,29.7,149.7,9.7z"/>
</g>
<g>
	<g>
		<path class="st8" d="M108.9,66.2v9.1H91.3V85c2.2-2.6,5-3.9,8.5-3.9c3.9,0,6.9,1.1,8.9,3.3c2,2.2,3,6.4,3,12.6v8.1
			c0,4-0.2,7-0.6,8.9s-1.2,3.6-2.5,5.2s-3,2.8-5.3,3.7c-2.3,0.9-5,1.3-8.3,1.3c-3.6,0-6.9-0.6-9.6-1.9c-2.8-1.3-4.8-3.2-5.9-5.7
			c-1.2-2.5-1.8-6.4-1.8-11.7v-3.1h14.2v3.5c0,3.7,0.1,6.3,0.4,7.8s1.1,2.3,2.7,2.3c0.7,0,1.3-0.2,1.7-0.7c0.4-0.4,0.7-0.9,0.7-1.4
			s0.1-2.7,0.1-6.7V95.3c0-2.1-0.2-3.6-0.7-4.3c-0.4-0.8-1.2-1.2-2.2-1.2c-0.7,0-1.2,0.2-1.6,0.6s-0.7,0.8-0.9,1.3
			c-0.1,0.5-0.2,1.5-0.2,3.2h-14l0.6-28.6h30.4C108.9,66.3,108.9,66.2,108.9,66.2z"/>
	</g>
</g>
<g>
	<path class="st4" d="M106.7,64.9V74H89.1v9.6c2.2-2.6,5-3.9,8.5-3.9c3.9,0,6.9,1.1,8.9,3.3c2,2.2,3,6.4,3,12.6v8.1
		c0,4-0.2,7-0.6,8.9s-1.2,3.6-2.5,5.2s-3,2.8-5.3,3.7c-2.3,0.9-5,1.3-8.3,1.3c-3.6,0-6.9-0.6-9.6-1.9c-2.8-1.3-4.8-3.2-5.9-5.7
		c-1.2-2.5-1.8-6.4-1.8-11.7v-3.1h14.2v3.5c0,3.7,0.1,6.3,0.4,7.8s1.1,2.3,2.7,2.3c0.7,0,1.3-0.2,1.7-0.7c0.4-0.4,0.7-0.9,0.7-1.4
		s0.1-2.7,0.1-6.7V93.9c0-2.1-0.2-3.6-0.7-4.3c-0.4-0.8-1.2-1.2-2.2-1.2c-0.7,0-1.2,0.2-1.6,0.6s-0.7,0.8-0.9,1.3
		c-0.1,0.5-0.2,1.5-0.2,3.2h-14l0.6-28.6H106.7z"/>
</g>
<g>
	<path class="st8" d="M133.3,100.5h-6c0.9,0.9,1.6,2,1.8,3.6h4.2v2.3h-4.2c-0.5,3.7-3.4,6-7.6,6.2c2.7,2.8,5.8,6.5,8.7,10.1h-4.9
		c-2.5-3-5.3-6.4-8.5-9.8v-3.1h2.2c3.5,0,5.4-1.4,5.8-3.4h-7.9v-2.3h7.8c-0.6-1.7-2.2-2.6-5.1-2.6h-2.7v-3.2h16.5v2.2H133.3z"/>
</g>
<g>
	<path class="st4" d="M132.3,99.9h-6c0.9,0.9,1.6,2,1.8,3.6h4.2v2.3h-4.2c-0.5,3.7-3.4,6-7.6,6.2c2.7,2.8,5.8,6.5,8.7,10.1h-4.9
		c-2.5-3-5.3-6.4-8.5-9.8v-3.1h2.2c3.5,0,5.4-1.4,5.8-3.4h-7.9v-2.3h7.8c-0.6-1.7-2.2-2.6-5.1-2.6h-2.7v-3.2h16.5v2.2H132.3z"/>
</g>
</svg>
