<?xml version="1.0" encoding="utf-8"?>
<!-- Generator: Adobe Illustrator 21.1.0, SVG Export Plug-In . SVG Version: 6.00 Build 0)  -->
<svg version="1.1" id="Layer_1" xmlns="http://www.w3.org/2000/svg" xmlns:xlink="http://www.w3.org/1999/xlink" x="0px" y="0px"
	 viewBox="0 0 200 200" style="enable-background:new 0 0 200 200;" xml:space="preserve">
<style type="text/css">
	.st0{opacity:0.1;enable-background:new    ;}
	.st1{fill:#A88E4E;}
	.st2{fill:#B79E65;}
	.st3{opacity:0.28;}
	.st4{fill:#FFFFFF;}
	.st5{opacity:0.5;}
	.st6{fill:none;stroke:#77602D;stroke-width:1.9286;stroke-linecap:round;stroke-linejoin:round;stroke-dasharray:1.9233,5.77;}
	.st7{fill:#91763A;}
	.st8{opacity:0.16;}
	.st9{fill:#EFEAE1;}
</style>
<g>
	<ellipse class="st0" cx="98.6" cy="190.7" rx="86.4" ry="5.3"/>
	<circle class="st1" cx="99.4" cy="95.5" r="93.5"/>
	<circle class="st2" cx="97.5" cy="98.6" r="92.1"/>
	<g class="st3">
		<path class="st4" d="M161.1,31.8l-134.9,125c2,2.4,4,4.7,6.2,6.8L167.5,38.5C165.5,36.1,163.3,33.9,161.1,31.8z"/>
		<path class="st4" d="M184.2,67.3c-2.6-7.2-6-14-10.3-20.3L40.4,170.7c5.9,4.7,12.4,8.7,19.4,11.8L184.2,67.3z"/>
		<path class="st4" d="M10.4,128.4c2.7,7.8,6.3,15,10.9,21.7L154.9,26.3c-6.3-5-13.3-9.2-20.8-12.5L10.4,128.4z"/>
	</g>
	<g class="st5">
		<circle class="st6" cx="97.2" cy="98.8" r="84.5"/>
	</g>
	<circle class="st7" cx="97.5" cy="98.4" r="77.1"/>
	<circle class="st1" cx="97.5" cy="98.4" r="73.7"/>
	<g class="st8">
		<path class="st4" d="M25.5,114.4c1.8,8.3,5.1,16.1,9.4,23L141.2,39c-6.6-4.9-14.1-8.7-22.2-11.2L25.5,114.4z"/>
		<path class="st4" d="M147.6,44.3L39.7,144.2c1.9,2.4,4,4.7,6.2,6.9L153.9,51C152,48.6,149.8,46.4,147.6,44.3z"/>
		<path class="st4" d="M169.2,81.2c-1.8-7.7-4.9-14.9-8.9-21.5L54.1,158c6.2,4.6,13.2,8.1,20.7,10.6L169.2,81.2z"/>
	</g>
	<path class="st4" d="M66.7,112.1c-0.9,12.5-2.8,14.2-14.7,15.2c11.9,1,13.8,2.7,14.7,15.2c0.9-12.5,2.8-14.2,14.7-15.2
		C69.4,126.3,67.6,124.6,66.7,112.1z"/>
	<path class="st4" d="M149.7,9.7c-1.5,20-4.4,22.8-23.5,24.3c19.1,1.5,22,4.3,23.5,24.3c1.5-20,4.4-22.8,23.5-24.3
		C154.1,32.5,151.2,29.7,149.7,9.7z"/>
</g>
<g>
	<g>
		<path class="st1" d="M76.7,110.4v7.5H52.6v-6.3c7.2-11.7,11.4-19,12.8-21.8s2-5,2-6.5c0-1.2-0.2-2.1-0.6-2.7
			c-0.4-0.6-1-0.9-1.9-0.9c-0.8,0-1.5,0.3-1.9,1c-0.4,0.7-0.6,1.9-0.6,3.9v4.2h-9.8v-1.6c0-2.5,0.1-4.4,0.4-5.8
			c0.3-1.4,0.9-2.8,1.9-4.2s2.3-2.4,3.9-3.1c1.6-0.7,3.5-1.1,5.7-1.1c4.4,0,7.7,1.1,9.9,3.3c2.2,2.2,3.4,4.9,3.4,8.2
			c0,2.5-0.6,5.2-1.9,8c-1.3,2.8-5,8.8-11.1,17.9H76.7z"/>
		<path class="st1" d="M105,73.9v7H91.4v7.5c1.7-2,3.9-3,6.6-3c3,0,5.3,0.8,6.9,2.5c1.6,1.7,2.3,5,2.3,9.8v6.3
			c0,3.1-0.1,5.4-0.4,6.9s-0.9,2.8-1.9,4.1s-2.3,2.2-4.1,2.9s-3.9,1-6.4,1c-2.8,0-5.3-0.5-7.5-1.5s-3.7-2.5-4.6-4.4
			c-0.9-2-1.4-5-1.4-9.1v-2.4h11v2.7c0,2.8,0.1,4.9,0.3,6.1s0.9,1.8,2.1,1.8c0.5,0,1-0.2,1.3-0.5s0.5-0.7,0.5-1.1s0.1-2.1,0.1-5.2
			v-8.7c0-1.6-0.2-2.8-0.5-3.4c-0.3-0.6-0.9-0.9-1.7-0.9c-0.5,0-0.9,0.2-1.3,0.5c-0.3,0.3-0.6,0.6-0.7,1c-0.1,0.4-0.1,1.2-0.1,2.5
			H81l0.5-22.2H105V73.9z"/>
		<path class="st1" d="M136.8,88.8v14.7c0,3.3-0.2,5.8-0.5,7.3c-0.4,1.5-1.1,2.9-2.3,4.3s-2.5,2.3-4.1,2.9s-3.4,0.9-5.4,0.9
			c-2.6,0-4.8-0.3-6.6-0.9s-3.1-1.6-4.2-2.8c-1-1.3-1.8-2.6-2.2-4.1c-0.4-1.4-0.7-3.7-0.7-6.8V88.8c0-4,0.3-7.1,1-9.1
			s2.1-3.6,4.2-4.8c2.1-1.2,4.6-1.8,7.5-1.8c2.4,0,4.6,0.4,6.5,1.3c1.9,0.9,3.3,1.9,4.3,3.1c0.9,1.2,1.6,2.6,1.9,4.1
			C136.7,83,136.8,85.5,136.8,88.8z M125.9,85.1c0-2.3-0.1-3.8-0.3-4.4c-0.2-0.6-0.8-0.9-1.6-0.9s-1.4,0.3-1.6,0.9
			c-0.3,0.6-0.4,2.1-0.4,4.3v21.5c0,2.6,0.1,4.1,0.4,4.6c0.3,0.5,0.8,0.8,1.6,0.8s1.4-0.3,1.6-0.9c0.3-0.6,0.4-2,0.4-4.2L125.9,85.1
			L125.9,85.1z"/>
	</g>
</g>
<g>
	<path class="st9" d="M75.1,109.4v7.5H50.9v-6.3c7.2-11.7,11.4-19,12.8-21.8s2-5,2-6.5c0-1.2-0.2-2.1-0.6-2.7
		c-0.4-0.6-1-0.9-1.9-0.9c-0.8,0-1.5,0.3-1.9,1c-0.4,0.7-0.6,1.9-0.6,3.9v4.2h-9.8v-1.6c0-2.5,0.1-4.4,0.4-5.8
		c0.3-1.4,0.9-2.8,1.9-4.2s2.3-2.4,3.9-3.1c1.6-0.7,3.5-1.1,5.7-1.1c4.4,0,7.7,1.1,9.9,3.3c2.2,2.2,3.4,4.9,3.4,8.2
		c0,2.5-0.6,5.2-1.9,8c-1.3,2.8-5,8.8-11.1,17.9H75.1z"/>
	<path class="st9" d="M103.3,72.8v7H89.7v7.5c1.7-2,3.9-3,6.6-3c3,0,5.3,0.8,6.9,2.5c1.6,1.7,2.3,5,2.3,9.8v6.3
		c0,3.1-0.2,5.4-0.4,6.9c-0.3,1.5-0.9,2.8-1.9,4.1c-1,1.2-2.3,2.2-4.1,2.9s-3.9,1-6.4,1c-2.8,0-5.3-0.5-7.5-1.5s-3.7-2.5-4.6-4.4
		c-0.9-2-1.4-5-1.4-9.1v-2.4h11v2.7c0,2.8,0.1,4.9,0.3,6.1s0.9,1.8,2.1,1.8c0.5,0,1-0.2,1.3-0.5s0.5-0.7,0.5-1.1s0.1-2.1,0.1-5.2
		v-8.7c0-1.6-0.2-2.8-0.5-3.4s-0.9-0.9-1.7-0.9c-0.5,0-0.9,0.2-1.3,0.5c-0.3,0.3-0.6,0.6-0.7,1s-0.1,1.2-0.1,2.5H79.3L79.8,73h23.5
		L103.3,72.8L103.3,72.8z"/>
	<path class="st9" d="M135.2,87.7v14.7c0,3.3-0.2,5.8-0.5,7.3c-0.4,1.5-1.1,2.9-2.3,4.3s-2.5,2.3-4.1,2.9s-3.4,0.9-5.4,0.9
		c-2.6,0-4.8-0.3-6.6-0.9s-3.1-1.6-4.2-2.8c-1-1.3-1.8-2.6-2.2-4.1c-0.4-1.4-0.7-3.7-0.7-6.8V87.7c0-4,0.3-7.1,1-9.1
		s2.1-3.6,4.2-4.8c2.1-1.2,4.6-1.8,7.5-1.8c2.4,0,4.6,0.4,6.5,1.3c1.9,0.9,3.3,1.9,4.3,3.1c0.9,1.2,1.6,2.6,1.9,4.1
		C135,82,135.2,84.4,135.2,87.7z M124.2,84c0-2.3-0.1-3.8-0.3-4.4s-0.8-0.9-1.6-0.9s-1.4,0.3-1.6,0.9c-0.3,0.6-0.4,2.1-0.4,4.3v21.5
		c0,2.6,0.1,4.1,0.4,4.6s0.8,0.8,1.6,0.8s1.4-0.3,1.6-0.9c0.3-0.6,0.4-2,0.4-4.2L124.2,84L124.2,84z"/>
</g>
<g>
	<path class="st1" d="M160.5,95.7h-6c0.9,0.9,1.6,2,1.8,3.6h4.2v2.3h-4.2c-0.5,3.7-3.4,6-7.6,6.2c2.7,2.8,5.8,6.5,8.7,10.1h-4.9
		c-2.5-3-5.3-6.4-8.5-9.8v-3.1h2.2c3.5,0,5.4-1.4,5.8-3.4H144v-2.3h7.8c-0.6-1.7-2.2-2.6-5.1-2.6H144v-3.2h16.5V95.7z"/>
</g>
<g>
	<path class="st9" d="M159.3,95h-6c0.9,0.9,1.6,2,1.8,3.6h4.2v2.3h-4.2c-0.5,3.7-3.4,6-7.6,6.2c2.7,2.8,5.8,6.5,8.7,10.1h-4.9
		c-2.5-3-5.3-6.4-8.5-9.8v-3.1h2.2c3.5,0,5.4-1.4,5.8-3.4h-7.9v-2.3h7.8c-0.6-1.7-2.2-2.6-5.1-2.6h-2.7v-3.2h16.5V95z"/>
</g>
</svg>
