<?xml version="1.0" encoding="utf-8"?>
<!-- Generator: Adobe Illustrator 21.1.0, SVG Export Plug-In . SVG Version: 6.00 Build 0)  -->
<svg version="1.1" id="Layer_1" xmlns="http://www.w3.org/2000/svg" xmlns:xlink="http://www.w3.org/1999/xlink" x="0px" y="0px"
	 viewBox="0 0 200 200" style="enable-background:new 0 0 200 200;" xml:space="preserve">
<style type="text/css">
	.st0{opacity:0.1;enable-background:new    ;}
	.st1{fill:#D654A8;}
	.st2{fill:#DD7CC0;}
	.st3{opacity:0.28;}
	.st4{fill:#FFFFFF;}
	.st5{fill:none;stroke:#D654A8;stroke-width:1.9286;stroke-linecap:round;stroke-linejoin:round;stroke-dasharray:1.9233,5.77;}
	.st6{fill:#C13A98;}
	.st7{opacity:0.16;}
</style>
<g>
	<ellipse class="st0" cx="98.6" cy="190.7" rx="86.4" ry="5.3"/>
	<circle class="st1" cx="99.4" cy="95.5" r="93.5"/>
	<circle class="st2" cx="97.5" cy="98.6" r="92.1"/>
	<g class="st3">
		<path class="st4" d="M161.1,31.8l-134.9,125c2,2.4,4,4.7,6.2,6.8L167.5,38.5C165.5,36.1,163.3,33.9,161.1,31.8z"/>
		<path class="st4" d="M184.2,67.3c-2.6-7.2-6-14-10.3-20.3L40.4,170.7c5.9,4.7,12.4,8.7,19.4,11.8L184.2,67.3z"/>
		<path class="st4" d="M10.4,128.4c2.7,7.8,6.3,15,10.9,21.7L154.9,26.3c-6.3-5-13.3-9.2-20.8-12.5L10.4,128.4z"/>
	</g>
	<g>
		<circle class="st5" cx="97.2" cy="98.8" r="84.5"/>
	</g>
	<circle class="st6" cx="97.5" cy="98.4" r="77.1"/>
	<circle class="st1" cx="97.5" cy="98.4" r="73.7"/>
	<g class="st7">
		<path class="st4" d="M25.5,114.4c1.8,8.3,5.1,16.1,9.4,23L141.2,39c-6.6-4.9-14.1-8.7-22.2-11.2L25.5,114.4z"/>
		<path class="st4" d="M147.6,44.3L39.7,144.2c1.9,2.4,4,4.7,6.2,6.9L153.9,51C152,48.6,149.8,46.4,147.6,44.3z"/>
		<path class="st4" d="M169.2,81.2c-1.8-7.7-4.9-14.9-8.9-21.5L54.1,158c6.2,4.6,13.2,8.1,20.7,10.6L169.2,81.2z"/>
	</g>
	<path class="st4" d="M66.7,112.1c-0.9,12.5-2.8,14.2-14.7,15.2c11.9,1,13.8,2.7,14.7,15.2c0.9-12.5,2.8-14.2,14.7-15.2
		C69.4,126.3,67.6,124.6,66.7,112.1z"/>
	<path class="st4" d="M149.7,9.7c-1.5,20-4.4,22.8-23.5,24.3c19.1,1.5,22,4.3,23.5,24.3c1.5-20,4.4-22.8,23.5-24.3
		C154.1,32.5,151.2,29.7,149.7,9.7z"/>
</g>
<g>
	<g>
		<path class="st6" d="M84,93c1.6,0.7,2.9,1.6,3.7,2.9s1.3,4.4,1.3,9.3c0,3.6-0.3,6.2-1,7.9c-0.7,1.7-2,3.1-4,4.2s-4.7,1.6-8,1.6
			s-5.8-0.5-7.8-1.6s-3.3-2.4-4.1-4.1s-1.2-4.5-1.2-8.5c0-2.7,0.2-5,0.6-6.9c0.4-2,1.7-3.5,3.8-4.7c-1.4-0.7-2.4-1.7-3.1-3.1
			c-0.7-1.4-1-3.2-1-5.4c0-3.8,1.1-6.6,3.2-8.5c2.1-1.9,5.3-2.8,9.4-2.8c4.8,0,8.2,1,10,3s2.8,4.9,2.8,8.6c0,2.4-0.3,4.1-0.9,5.1
			C87.2,90.9,85.9,91.9,84,93z M78.1,101.8c0-1.7-0.2-2.8-0.5-3.4c-0.3-0.6-0.9-0.8-1.6-0.8s-1.2,0.3-1.6,0.8s-0.5,1.7-0.5,3.4v5.7
			c0,1.9,0.2,3.1,0.5,3.7c0.4,0.5,0.9,0.8,1.7,0.8c0.8,0,1.3-0.3,1.6-0.8c0.3-0.6,0.4-1.8,0.4-3.7V101.8z M77.8,83.5
			c0-1.5-0.1-2.5-0.4-3s-0.8-0.7-1.5-0.7s-1.2,0.3-1.5,0.8S74,82.1,74,83.5v3.3c0,1.3,0.1,2.2,0.4,2.7s0.8,0.8,1.5,0.8
			s1.2-0.2,1.5-0.7s0.4-1.5,0.4-3.1V83.5z"/>
		<path class="st6" d="M118.8,88.8v14.7c0,3.3-0.2,5.8-0.5,7.3c-0.4,1.5-1.1,2.9-2.3,4.3c-1.1,1.3-2.5,2.3-4.1,2.9s-3.4,0.9-5.4,0.9
			c-2.6,0-4.8-0.3-6.6-0.9c-1.7-0.6-3.1-1.6-4.2-2.8c-1-1.3-1.8-2.6-2.2-4.1c-0.4-1.4-0.7-3.7-0.7-6.8V88.8c0-4,0.3-7.1,1-9.1
			s2.1-3.6,4.2-4.8c2.1-1.2,4.6-1.8,7.5-1.8c2.4,0,4.6,0.4,6.5,1.3c1.9,0.9,3.3,1.9,4.3,3.1c0.9,1.2,1.6,2.6,1.9,4.1
			C118.6,83,118.8,85.5,118.8,88.8z M107.8,85.1c0-2.3-0.1-3.8-0.3-4.4c-0.2-0.6-0.8-0.9-1.6-0.9s-1.4,0.3-1.6,0.9
			c-0.3,0.6-0.4,2.1-0.4,4.3v21.5c0,2.6,0.1,4.1,0.4,4.6c0.2,0.5,0.8,0.8,1.6,0.8s1.4-0.3,1.6-0.9c0.3-0.6,0.4-2,0.4-4.2L107.8,85.1
			L107.8,85.1z"/>
	</g>
</g>
<g>
	<path class="st4" d="M82.3,91.9c1.6,0.7,2.9,1.6,3.7,2.9s1.3,4.4,1.3,9.3c0,3.6-0.3,6.2-1,7.9c-0.7,1.7-2,3.1-4,4.2s-4.7,1.6-8,1.6
		s-5.8-0.5-7.8-1.6s-3.3-2.4-4.1-4.1s-1.2-4.5-1.2-8.5c0-2.7,0.2-5,0.6-6.9s1.7-3.5,3.8-4.7c-1.4-0.7-2.4-1.7-3.1-3.1
		c-0.7-1.4-1-3.2-1-5.4c0-3.8,1.1-6.6,3.2-8.5c2.1-1.9,5.3-2.8,9.4-2.8c4.8,0,8.2,1,10,3s2.8,4.9,2.8,8.6c0,2.4-0.3,4.1-0.9,5.1
		C85.5,89.8,84.2,90.9,82.3,91.9z M76.4,100.8c0-1.7-0.2-2.8-0.5-3.4c-0.3-0.6-0.9-0.8-1.6-0.8s-1.2,0.3-1.6,0.8
		c-0.3,0.5-0.5,1.7-0.5,3.4v5.7c0,1.9,0.2,3.1,0.5,3.7c0.4,0.5,0.9,0.8,1.7,0.8c0.8,0,1.3-0.3,1.6-0.8c0.3-0.6,0.4-1.8,0.4-3.7
		V100.8z M76.2,82.4c0-1.5-0.1-2.5-0.4-3s-0.8-0.7-1.5-0.7s-1.2,0.3-1.5,0.8s-0.4,1.5-0.4,2.9v3.3c0,1.3,0.1,2.2,0.4,2.7
		s0.8,0.8,1.5,0.8s1.2-0.2,1.5-0.7s0.4-1.5,0.4-3.1V82.4z"/>
	<path class="st4" d="M117.1,87.7v14.7c0,3.3-0.2,5.8-0.5,7.3s-1.1,2.9-2.3,4.3c-1.2,1.4-2.5,2.3-4.1,2.9s-3.4,0.9-5.4,0.9
		c-2.6,0-4.8-0.3-6.6-0.9s-3.1-1.6-4.2-2.8c-1-1.3-1.8-2.6-2.2-4.1c-0.4-1.4-0.7-3.7-0.7-6.8V87.7c0-4,0.3-7.1,1-9.1
		s2.1-3.6,4.2-4.8c2.1-1.2,4.6-1.8,7.5-1.8c2.4,0,4.6,0.4,6.5,1.3c1.9,0.9,3.3,1.9,4.3,3.1c0.9,1.2,1.6,2.6,1.9,4.1
		C116.9,82,117.1,84.4,117.1,87.7z M106.1,84c0-2.3-0.1-3.8-0.3-4.4s-0.8-0.9-1.6-0.9s-1.4,0.3-1.6,0.9c-0.3,0.6-0.4,2.1-0.4,4.3
		v21.5c0,2.6,0.1,4.1,0.4,4.6c0.3,0.5,0.8,0.8,1.6,0.8s1.4-0.3,1.6-0.9c0.3-0.6,0.4-2,0.4-4.2L106.1,84L106.1,84z"/>
</g>
<g>
	<path class="st1" d="M145.3,95.6h-6c0.9,0.9,1.6,2,1.8,3.6h4.2v2.3h-4.2c-0.5,3.7-3.4,6-7.6,6.2c2.7,2.8,5.8,6.5,8.7,10.1h-4.9
		c-2.5-3-5.3-6.4-8.5-9.8v-3.1h2.2c3.5,0,5.4-1.4,5.8-3.4h-7.9v-2.3h7.8c-0.6-1.7-2.2-2.6-5.1-2.6h-2.7v-3.2h16.5v2.2H145.3z"/>
</g>
<g>
	<path class="st4" d="M144.2,95h-6c0.9,0.9,1.6,2,1.8,3.6h4.2v2.3H140c-0.5,3.7-3.4,6-7.6,6.2c2.7,2.8,5.8,6.5,8.7,10.1h-4.9
		c-2.5-3-5.3-6.4-8.5-9.8v-3.1h2.2c3.5,0,5.4-1.4,5.8-3.4h-7.9v-2.3h7.8c-0.6-1.7-2.2-2.6-5.1-2.6h-2.7v-3.2h16.5V95H144.2z"/>
</g>
</svg>
