<?xml version="1.0" encoding="utf-8"?>
<!-- Generator: Adobe Illustrator 21.1.0, SVG Export Plug-In . SVG Version: 6.00 Build 0)  -->
<svg version="1.1" id="Layer_1" xmlns="http://www.w3.org/2000/svg" xmlns:xlink="http://www.w3.org/1999/xlink" x="0px" y="0px"
	 viewBox="0 0 200 200" style="enable-background:new 0 0 200 200;" xml:space="preserve">
<style type="text/css">
	.st0{opacity:0.1;enable-background:new    ;}
	.st1{fill:#DEA004;}
	.st2{fill:#F8DC4A;}
	.st3{opacity:0.28;}
	.st4{fill:#FFFFFF;}
	.st5{fill:none;stroke:#F2C341;stroke-width:1.9286;stroke-linecap:round;stroke-linejoin:round;stroke-dasharray:1.9301,5.7904;}
	.st6{fill:#C99204;}
	.st7{opacity:0.16;}
</style>
<ellipse id="XMLID_14_" class="st0" cx="99.9" cy="190.9" rx="85.5" ry="5.2"/>
<circle id="XMLID_13_" class="st1" cx="100.7" cy="96.7" r="92.5"/>
<circle id="XMLID_12_" class="st2" cx="98.8" cy="99.8" r="91.1"/>
<g class="st3">
	<path id="XMLID_11_" class="st4" d="M161.7,33.7L28.3,157.3c1.9,2.4,4,4.6,6.1,6.8L168,40.3C166,38,163.9,35.8,161.7,33.7z"/>
	<path id="XMLID_10_" class="st4" d="M184.6,68.8c-2.6-7.1-6-13.9-10.1-20L42.3,171.1c5.9,4.6,12.3,8.6,19.2,11.7L184.6,68.8z"/>
	<path id="XMLID_9_" class="st4" d="M12.6,129.2c2.6,7.7,6.3,14.9,10.7,21.5L155.5,28.3c-6.2-5-13.1-9.1-20.6-12.4L12.6,129.2z"/>
</g>
<g id="XMLID_8_">
	<circle id="XMLID_22_" class="st5" cx="98.5" cy="100" r="83.6"/>
</g>
<circle id="XMLID_7_" class="st6" cx="98.8" cy="99.6" r="76.3"/>
<circle id="XMLID_6_" class="st1" cx="98.8" cy="99.6" r="72.9"/>
<g class="st7">
	<path id="XMLID_5_" class="st4" d="M27.6,115.4c1.8,8.2,5,15.9,9.3,22.8L142,40.8c-6.6-4.8-14-8.6-22-11L27.6,115.4z"/>
	<path id="XMLID_4_" class="st4" d="M148.3,46.1L41.7,144.9c1.9,2.4,3.9,4.7,6.1,6.8l106.9-99C152.7,50.4,150.6,48.2,148.3,46.1z"/>
	<path id="XMLID_3_" class="st4" d="M169.7,82.6c-1.8-7.6-4.8-14.8-8.8-21.3l-105,97.2c6.2,4.5,13.1,8.1,20.5,10.4L169.7,82.6z"/>
</g>
<path id="XMLID_2_" class="st4" d="M68.3,113.1c-0.9,12.4-2.7,14.1-14.5,15c11.8,1,13.6,2.7,14.5,15c0.9-12.4,2.7-14.1,14.5-15
	C71,127.2,69.2,125.5,68.3,113.1z"/>
<path id="XMLID_1_" class="st4" d="M150.5,9.8c-1.4,19.8-4.4,22.5-23.2,24.1c18.9,1.5,21.8,4.3,23.2,24.1
	c1.4-19.8,4.4-22.5,23.2-24.1C154.8,32.3,151.9,29.6,150.5,9.8z"/>
<g>
	<path class="st6" d="M72.7,90.8h-8c0-1.5,0-2.4,0-2.8s-0.2-0.7-0.5-1c-0.3-0.3-0.7-0.4-1.2-0.4c-0.4,0-0.7,0.1-1,0.4
		s-0.4,0.6-0.5,1c0,0.4-0.1,1.2-0.1,2.4v5.1c0.4-0.9,1-1.5,1.8-1.9S65,93,66.1,93c1.5,0,2.8,0.4,3.9,1.2c1.1,0.8,1.8,1.7,2.1,2.8
		c0.3,1.1,0.5,2.6,0.5,4.5v2.6c0,2.2-0.1,3.9-0.3,5c-0.2,1.1-0.6,2.1-1.4,3c-0.7,0.9-1.8,1.7-3.1,2.2s-2.8,0.8-4.5,0.8
		c-2.2,0-3.9-0.3-5.3-0.9c-1.4-0.6-2.4-1.4-3.2-2.6c-0.7-1.1-1.2-2.3-1.3-3.5s-0.2-3.6-0.2-7.1v-4.4c0-3.8,0.1-6.4,0.2-7.6
		c0.1-1.3,0.6-2.5,1.4-3.7c0.8-1.1,1.9-2,3.3-2.6s3-0.9,4.8-0.9c2.2,0,4.1,0.4,5.5,1.1s2.5,1.7,3.1,3.1
		C72.4,87.1,72.7,88.8,72.7,90.8z M64.7,100.8c0-1.1-0.1-1.9-0.4-2.3c-0.3-0.4-0.7-0.6-1.2-0.6c-0.6,0-1,0.2-1.2,0.6
		c-0.3,0.4-0.4,1.2-0.4,2.4v5.8c0,1.4,0.1,2.3,0.4,2.8s0.6,0.7,1.2,0.7c0.3,0,0.7-0.2,1.1-0.5s0.6-1.2,0.6-2.7L64.7,100.8
		L64.7,100.8z"/>
	<path class="st6" d="M94.4,93.1v10.7c0,2.4-0.1,4.2-0.4,5.3s-0.8,2.1-1.6,3.1c-0.8,1-1.8,1.7-3,2.1s-2.5,0.6-3.9,0.6
		c-1.9,0-3.5-0.2-4.8-0.7c-1.3-0.4-2.3-1.1-3-2.1c-0.8-0.9-1.3-1.9-1.6-3c-0.3-1-0.5-2.7-0.5-4.9V93.1c0-2.9,0.3-5.1,0.8-6.6
		s1.5-2.6,3-3.5s3.3-1.3,5.5-1.3c1.8,0,3.3,0.3,4.7,0.9c1.4,0.6,2.4,1.4,3.1,2.2c0.7,0.9,1.2,1.9,1.4,3S94.4,90.7,94.4,93.1z
		 M86.4,90.4c0-1.7-0.1-2.8-0.2-3.2c-0.2-0.4-0.6-0.6-1.2-0.6s-1,0.2-1.2,0.7s-0.3,1.5-0.3,3.2v15.6c0,1.9,0.1,3,0.3,3.4
		s0.6,0.6,1.2,0.6s1-0.2,1.2-0.7c0.2-0.4,0.3-1.5,0.3-3v-16H86.4z"/>
	<path class="st6" d="M116.1,93.1v10.7c0,2.4-0.1,4.2-0.4,5.3s-0.8,2.1-1.6,3.1s-1.8,1.7-3,2.1s-2.5,0.6-3.9,0.6
		c-1.9,0-3.5-0.2-4.8-0.7c-1.3-0.4-2.3-1.1-3-2.1c-0.8-0.9-1.3-1.9-1.6-3c-0.3-1-0.5-2.7-0.5-4.9V93.1c0-2.9,0.3-5.1,0.8-6.6
		s1.5-2.6,3-3.5s3.3-1.3,5.5-1.3c1.8,0,3.3,0.3,4.7,0.9s2.4,1.4,3.1,2.2c0.7,0.9,1.2,1.9,1.4,3C116,88.9,116.1,90.7,116.1,93.1z
		 M108.1,90.4c0-1.7-0.1-2.8-0.2-3.2s-0.6-0.6-1.2-0.6s-1,0.2-1.2,0.7s-0.3,1.5-0.3,3.2v15.6c0,1.9,0.1,3,0.3,3.4
		c0.2,0.4,0.6,0.6,1.2,0.6s1-0.2,1.2-0.7s0.3-1.5,0.3-3v-16H108.1z"/>
	<path class="st6" d="M137.8,93.1v10.7c0,2.4-0.1,4.2-0.4,5.3s-0.8,2.1-1.6,3.1s-1.8,1.7-3,2.1s-2.5,0.6-3.9,0.6
		c-1.9,0-3.5-0.2-4.8-0.7c-1.3-0.4-2.3-1.1-3-2.1c-0.8-0.9-1.3-1.9-1.6-3c-0.3-1-0.5-2.7-0.5-4.9V93.1c0-2.9,0.3-5.1,0.8-6.6
		s1.5-2.6,3-3.5s3.3-1.3,5.5-1.3c1.8,0,3.3,0.3,4.7,0.9s2.4,1.4,3.1,2.2c0.7,0.9,1.2,1.9,1.4,3C137.7,88.9,137.8,90.7,137.8,93.1z
		 M129.8,90.4c0-1.7-0.1-2.8-0.2-3.2s-0.6-0.6-1.2-0.6c-0.6,0-1,0.2-1.2,0.7s-0.3,1.5-0.3,3.2v15.6c0,1.9,0.1,3,0.3,3.4
		c0.2,0.4,0.6,0.6,1.2,0.6c0.6,0,1-0.2,1.2-0.7s0.3-1.5,0.3-3v-16H129.8z"/>
</g>
<g>
	<path class="st2" d="M71.5,90h-8c0-1.5,0-2.4,0-2.8s-0.2-0.7-0.5-1s-0.7-0.4-1.2-0.4c-0.4,0-0.7,0.1-1,0.4s-0.4,0.6-0.5,1
		c0,0.4-0.1,1.2-0.1,2.4v5.1c0.4-0.9,1-1.5,1.8-1.9s1.8-0.6,2.9-0.6c1.5,0,2.8,0.4,3.9,1.2c1.1,0.8,1.8,1.7,2.1,2.8
		c0.3,1.1,0.5,2.6,0.5,4.5v2.6c0,2.2-0.1,3.9-0.3,5c-0.2,1.1-0.6,2.1-1.4,3c-0.7,0.9-1.8,1.7-3.1,2.2s-2.8,0.8-4.5,0.8
		c-2.2,0-3.9-0.3-5.3-0.9c-1.4-0.6-2.4-1.4-3.2-2.6c-0.7-1.1-1.2-2.3-1.3-3.5s-0.2-3.6-0.2-7.1v-4.4c0-3.8,0.1-6.4,0.2-7.6
		c0.1-1.3,0.6-2.5,1.4-3.7c0.8-1.1,1.9-2,3.3-2.6s3-0.9,4.8-0.9c2.2,0,4.1,0.4,5.5,1.1s2.5,1.7,3.1,3.1C71.2,86.3,71.5,88,71.5,90z
		 M63.5,100c0-1.1-0.1-1.9-0.4-2.3c-0.3-0.4-0.7-0.6-1.2-0.6c-0.6,0-1,0.2-1.2,0.6c-0.3,0.4-0.4,1.2-0.4,2.4v5.8
		c0,1.4,0.1,2.3,0.4,2.8s0.6,0.7,1.2,0.7c0.3,0,0.7-0.2,1.1-0.5c0.4-0.3,0.6-1.2,0.6-2.7L63.5,100L63.5,100z"/>
	<path class="st2" d="M93.1,92.3V103c0,2.4-0.1,4.2-0.4,5.3s-0.8,2.1-1.6,3.1c-0.8,1-1.8,1.7-3,2.1s-2.5,0.6-3.9,0.6
		c-1.9,0-3.5-0.2-4.8-0.7c-1.3-0.4-2.3-1.1-3-2.1c-0.8-0.9-1.3-1.9-1.6-3c-0.3-1-0.5-2.7-0.5-4.9V92.3c0-2.9,0.3-5.1,0.8-6.6
		s1.5-2.6,3-3.5s3.3-1.3,5.5-1.3c1.8,0,3.3,0.3,4.7,0.9c1.4,0.6,2.4,1.4,3.1,2.2c0.7,0.9,1.2,1.9,1.4,3S93.1,89.9,93.1,92.3z
		 M85.1,89.7c0-1.7-0.1-2.8-0.2-3.2c-0.2-0.4-0.6-0.6-1.2-0.6s-1,0.2-1.2,0.7s-0.3,1.5-0.3,3.2v15.6c0,1.9,0.1,3,0.3,3.4
		s0.6,0.6,1.2,0.6s1-0.2,1.2-0.7c0.2-0.4,0.3-1.5,0.3-3v-16H85.1z"/>
	<path class="st2" d="M114.9,92.3V103c0,2.4-0.1,4.2-0.4,5.3s-0.8,2.1-1.6,3.1s-1.8,1.7-3,2.1s-2.5,0.6-3.9,0.6
		c-1.9,0-3.5-0.2-4.8-0.7c-1.3-0.4-2.3-1.1-3-2.1c-0.8-0.9-1.3-1.9-1.6-3c-0.3-1-0.5-2.7-0.5-4.9V92.3c0-2.9,0.3-5.1,0.8-6.6
		s1.5-2.6,3-3.5s3.3-1.3,5.5-1.3c1.8,0,3.3,0.3,4.7,0.9s2.4,1.4,3.1,2.2c0.7,0.9,1.2,1.9,1.4,3C114.7,88.2,114.9,89.9,114.9,92.3z
		 M106.9,89.7c0-1.7-0.1-2.8-0.2-3.2s-0.6-0.6-1.2-0.6s-1,0.2-1.2,0.7S104,88,104,89.7v15.6c0,1.9,0.1,3,0.3,3.4
		c0.2,0.4,0.6,0.6,1.2,0.6s1-0.2,1.2-0.7s0.3-1.5,0.3-3L106.9,89.7L106.9,89.7z"/>
	<path class="st2" d="M136.6,92.3V103c0,2.4-0.1,4.2-0.4,5.3s-0.8,2.1-1.6,3.1s-1.8,1.7-3,2.1s-2.5,0.6-3.9,0.6
		c-1.9,0-3.5-0.2-4.8-0.7c-1.3-0.4-2.3-1.1-3-2.1c-0.8-0.9-1.3-1.9-1.6-3c-0.3-1-0.5-2.7-0.5-4.9V92.3c0-2.9,0.3-5.1,0.8-6.6
		s1.5-2.6,3-3.5s3.3-1.3,5.5-1.3c1.8,0,3.3,0.3,4.7,0.9s2.4,1.4,3.1,2.2c0.7,0.9,1.2,1.9,1.4,3C136.5,88.2,136.6,89.9,136.6,92.3z
		 M128.6,89.7c0-1.7-0.1-2.8-0.2-3.2s-0.6-0.6-1.2-0.6s-1,0.2-1.2,0.7s-0.3,1.5-0.3,3.2v15.6c0,1.9,0.1,3,0.3,3.4
		c0.2,0.4,0.6,0.6,1.2,0.6s1-0.2,1.2-0.7s0.3-1.5,0.3-3v-16H128.6z"/>
</g>
<g>
	<path class="st6" d="M155.6,96.7h-4.8c0.7,0.7,1.2,1.6,1.4,2.9h3.4v1.8h-3.4c-0.4,3-2.7,4.8-6.1,5c2.1,2.2,4.6,5.2,7,8.1h-3.9
		c-2-2.4-4.2-5.1-6.8-7.8v-2.5h1.8c2.8,0,4.3-1.1,4.6-2.7h-6.3v-1.8h6.2c-0.4-1.3-1.8-2.1-4.1-2.1h-2.2v-2.6h13.2V96.7z"/>
</g>
<g>
	<path class="st2" d="M154.7,96.2h-4.8c0.7,0.7,1.2,1.6,1.4,2.9h3.4v1.8h-3.4c-0.4,3-2.7,4.8-6.1,5c2.1,2.2,4.6,5.2,7,8.1h-3.9
		c-2-2.4-4.2-5.1-6.8-7.8v-2.5h1.8c2.8,0,4.3-1.1,4.6-2.7h-6.3v-1.8h6.2c-0.4-1.3-1.8-2.1-4.1-2.1h-2.2v-2.6h13.2V96.2z"/>
</g>
</svg>
