<?xml version="1.0" encoding="utf-8"?>
<!-- Generator: Adobe Illustrator 21.1.0, SVG Export Plug-In . SVG Version: 6.00 Build 0)  -->
<svg version="1.1" id="Layer_1" xmlns="http://www.w3.org/2000/svg" xmlns:xlink="http://www.w3.org/1999/xlink" x="0px" y="0px"
	 viewBox="0 0 200 200" style="enable-background:new 0 0 200 200;" xml:space="preserve">
<style type="text/css">
	.st0{opacity:0.1;enable-background:new    ;}
	.st1{fill:#D31845;}
	.st2{fill:#EA285F;}
	.st3{opacity:0.28;}
	.st4{fill:#FFFFFF;}
	.st5{fill:none;stroke:#F7578C;stroke-width:1.9286;stroke-linecap:round;stroke-linejoin:round;stroke-dasharray:1.9301,5.7904;}
	.st6{fill:#B71140;}
	.st7{opacity:0.16;}
</style>
<ellipse id="XMLID_14_" class="st0" cx="99.9" cy="190.9" rx="85.5" ry="5.2"/>
<circle id="XMLID_13_" class="st1" cx="100.7" cy="96.7" r="92.5"/>
<circle id="XMLID_12_" class="st2" cx="98.8" cy="99.8" r="91.1"/>
<g class="st3">
	<path id="XMLID_11_" class="st4" d="M161.7,33.7L28.3,157.3c1.9,2.4,4,4.6,6.1,6.8L168,40.3C166,38,163.9,35.8,161.7,33.7z"/>
	<path id="XMLID_10_" class="st4" d="M184.6,68.8c-2.6-7.1-6-13.9-10.1-20L42.3,171.1c5.9,4.6,12.3,8.6,19.2,11.7L184.6,68.8z"/>
	<path id="XMLID_9_" class="st4" d="M12.6,129.2c2.6,7.7,6.3,14.9,10.7,21.5L155.5,28.3c-6.2-5-13.1-9.1-20.6-12.4L12.6,129.2z"/>
</g>
<g id="XMLID_8_">
	<circle id="XMLID_22_" class="st5" cx="98.5" cy="100" r="83.6"/>
</g>
<circle id="XMLID_7_" class="st6" cx="98.8" cy="99.6" r="76.3"/>
<circle id="XMLID_6_" class="st1" cx="98.8" cy="99.6" r="72.9"/>
<g class="st7">
	<path id="XMLID_5_" class="st4" d="M27.6,115.4c1.8,8.2,5,15.9,9.3,22.8L142,40.8c-6.6-4.8-14-8.6-22-11L27.6,115.4z"/>
	<path id="XMLID_4_" class="st4" d="M148.3,46.1L41.7,144.9c1.9,2.4,3.9,4.7,6.1,6.8l106.9-99C152.7,50.4,150.6,48.2,148.3,46.1z"/>
	<path id="XMLID_3_" class="st4" d="M169.7,82.6c-1.8-7.6-4.8-14.8-8.8-21.3l-105,97.2c6.2,4.5,13.1,8.1,20.5,10.4L169.7,82.6z"/>
</g>
<path id="XMLID_2_" class="st4" d="M68.3,113.1c-0.9,12.4-2.7,14.1-14.5,15c11.8,1,13.6,2.7,14.5,15c0.9-12.4,2.7-14.1,14.5-15
	C71,127.2,69.2,125.5,68.3,113.1z"/>
<path id="XMLID_1_" class="st4" d="M150.5,9.8c-1.4,19.8-4.4,22.5-23.2,24.1c18.9,1.5,21.8,4.3,23.2,24.1
	c1.4-19.8,4.4-22.5,23.2-24.1C154.8,32.3,151.9,29.6,150.5,9.8z"/>
<g>
	<path class="st6" d="M56.8,108.9v5.5H39.2v-4.6c5.2-8.5,8.3-13.8,9.3-15.8s1.5-3.6,1.5-4.7c0-0.9-0.1-1.5-0.4-1.9s-0.8-0.6-1.4-0.6
		s-1.1,0.2-1.4,0.7s-0.4,1.4-0.4,2.8v3h-7.2V92c0-1.8,0.1-3.2,0.3-4.2s0.6-2.1,1.4-3.1s1.7-1.8,2.8-2.3c1.1-0.5,2.6-0.8,4.2-0.8
		c3.2,0,5.6,0.8,7.2,2.4c1.6,1.6,2.4,3.6,2.4,6c0,1.8-0.5,3.8-1.4,5.8s-3.6,6.4-8.1,13L56.8,108.9L56.8,108.9z"/>
	<path class="st6" d="M78.8,93.1v10.7c0,2.4-0.1,4.2-0.4,5.3c-0.3,1.1-0.8,2.1-1.6,3.1s-1.8,1.7-3,2.1s-2.5,0.6-3.9,0.6
		c-1.9,0-3.5-0.2-4.8-0.7c-1.3-0.4-2.3-1.1-3-2.1c-0.8-0.9-1.3-1.9-1.6-3c-0.3-1-0.5-2.7-0.5-4.9V93.1c0-2.9,0.3-5.1,0.8-6.6
		s1.5-2.6,3-3.5s3.3-1.3,5.5-1.3c1.8,0,3.3,0.3,4.7,0.9c1.4,0.6,2.4,1.4,3.1,2.2c0.7,0.9,1.2,1.9,1.4,3
		C78.6,88.9,78.8,90.7,78.8,93.1z M70.8,90.4c0-1.7-0.1-2.8-0.2-3.2c-0.2-0.4-0.6-0.6-1.2-0.6s-1,0.2-1.2,0.7s-0.3,1.5-0.3,3.2v15.6
		c0,1.9,0.1,3,0.3,3.4s0.6,0.6,1.2,0.6s1-0.2,1.2-0.7c0.2-0.4,0.3-1.5,0.3-3v-16C70.9,90.4,70.8,90.4,70.8,90.4z"/>
	<path class="st6" d="M100.5,93.1v10.7c0,2.4-0.1,4.2-0.4,5.3c-0.3,1.1-0.8,2.1-1.6,3.1s-1.8,1.7-3,2.1s-2.5,0.6-3.9,0.6
		c-1.9,0-3.5-0.2-4.8-0.7c-1.3-0.4-2.3-1.1-3-2.1c-0.8-0.9-1.3-1.9-1.6-3c-0.3-1-0.5-2.7-0.5-4.9V93.1c0-2.9,0.3-5.1,0.8-6.6
		s1.5-2.6,3-3.5s3.3-1.3,5.5-1.3c1.8,0,3.3,0.3,4.7,0.9c1.4,0.6,2.4,1.4,3.1,2.2c0.7,0.9,1.2,1.9,1.4,3S100.5,90.7,100.5,93.1z
		 M92.5,90.4c0-1.7-0.1-2.8-0.2-3.2c-0.1-0.4-0.6-0.6-1.2-0.6s-1,0.2-1.2,0.7s-0.3,1.5-0.3,3.2v15.6c0,1.9,0.1,3,0.3,3.4
		s0.6,0.6,1.2,0.6s1-0.2,1.2-0.7s0.3-1.5,0.3-3v-16C92.6,90.4,92.5,90.4,92.5,90.4z"/>
	<path class="st6" d="M122.2,93.1v10.7c0,2.4-0.1,4.2-0.4,5.3c-0.3,1.1-0.8,2.1-1.6,3.1s-1.8,1.7-3,2.1s-2.5,0.6-3.9,0.6
		c-1.9,0-3.5-0.2-4.8-0.7c-1.3-0.4-2.3-1.1-3-2.1c-0.8-0.9-1.3-1.9-1.6-3c-0.3-1-0.5-2.7-0.5-4.9V93.1c0-2.9,0.3-5.1,0.8-6.6
		s1.5-2.6,3-3.5s3.3-1.3,5.5-1.3c1.8,0,3.3,0.3,4.7,0.9c1.4,0.6,2.4,1.4,3.1,2.2c0.7,0.9,1.2,1.9,1.4,3
		C122.1,88.9,122.2,90.7,122.2,93.1z M114.2,90.4c0-1.7-0.1-2.8-0.2-3.2c-0.1-0.4-0.6-0.6-1.2-0.6s-1,0.2-1.2,0.7s-0.3,1.5-0.3,3.2
		v15.6c0,1.9,0.1,3,0.3,3.4s0.6,0.6,1.2,0.6s1-0.2,1.2-0.7s0.3-1.5,0.3-3v-16C114.3,90.4,114.2,90.4,114.2,90.4z"/>
	<path class="st6" d="M143.9,93.1v10.7c0,2.4-0.1,4.2-0.4,5.3s-0.8,2.1-1.6,3.1s-1.8,1.7-3,2.1s-2.5,0.6-3.9,0.6
		c-1.9,0-3.5-0.2-4.8-0.7c-1.3-0.4-2.3-1.1-3-2.1c-0.8-0.9-1.3-1.9-1.6-3c-0.3-1-0.5-2.7-0.5-4.9V93.1c0-2.9,0.3-5.1,0.8-6.6
		s1.5-2.6,3-3.5s3.3-1.3,5.5-1.3c1.8,0,3.3,0.3,4.7,0.9c1.4,0.6,2.4,1.4,3.1,2.2c0.7,0.9,1.2,1.9,1.4,3
		C143.8,88.9,143.9,90.7,143.9,93.1z M136,90.4c0-1.7-0.1-2.8-0.2-3.2c-0.1-0.4-0.6-0.6-1.2-0.6c-0.6,0-1,0.2-1.2,0.7
		s-0.3,1.5-0.3,3.2v15.6c0,1.9,0.1,3,0.3,3.4s0.6,0.6,1.2,0.6s1-0.2,1.2-0.7s0.3-1.5,0.3-3v-16C136.1,90.4,136,90.4,136,90.4z"/>
</g>
<g>
	<path class="st4" d="M55.6,108.1v5.5H38V109c5.2-8.5,8.3-13.8,9.3-15.8s1.5-3.6,1.5-4.7c0-0.9-0.1-1.5-0.4-1.9S47.6,86,47,86
		s-1.1,0.2-1.4,0.7s-0.4,1.4-0.4,2.8v3H38v-1.2c0-1.8,0.1-3.2,0.3-4.2c0.2-1,0.6-2.1,1.4-3.1s1.7-1.8,2.8-2.3s2.6-0.8,4.2-0.8
		c3.2,0,5.6,0.8,7.2,2.4s2.4,3.6,2.4,6c0,1.8-0.5,3.8-1.4,5.8s-3.6,6.4-8.1,13C46.8,108.1,55.6,108.1,55.6,108.1z"/>
	<path class="st4" d="M77.5,92.3V103c0,2.4-0.1,4.2-0.4,5.3c-0.3,1.1-0.8,2.1-1.6,3.1s-1.8,1.7-3,2.1c-1.2,0.4-2.5,0.6-3.9,0.6
		c-1.9,0-3.5-0.2-4.8-0.7c-1.3-0.4-2.3-1.1-3-2.1c-0.8-0.9-1.3-1.9-1.6-3c-0.3-1-0.5-2.7-0.5-4.9V92.3c0-2.9,0.3-5.1,0.8-6.6
		s1.5-2.6,3-3.5c1.5-0.9,3.3-1.3,5.5-1.3c1.8,0,3.3,0.3,4.7,0.9c1.4,0.6,2.4,1.4,3.1,2.2c0.7,0.9,1.2,1.9,1.4,3
		C77.4,88.2,77.5,89.9,77.5,92.3z M69.5,89.7c0-1.7-0.1-2.8-0.2-3.2c-0.2-0.4-0.6-0.6-1.2-0.6s-1,0.2-1.2,0.7s-0.3,1.5-0.3,3.2v15.6
		c0,1.9,0.1,3,0.3,3.4s0.6,0.6,1.2,0.6s1-0.2,1.2-0.7c0.2-0.4,0.3-1.5,0.3-3v-16H69.5z"/>
	<path class="st4" d="M99.3,92.3V103c0,2.4-0.1,4.2-0.4,5.3c-0.3,1.1-0.8,2.1-1.6,3.1s-1.8,1.7-3,2.1c-1.2,0.4-2.5,0.6-3.9,0.6
		c-1.9,0-3.5-0.2-4.8-0.7c-1.3-0.4-2.3-1.1-3-2.1c-0.8-0.9-1.3-1.9-1.6-3c-0.3-1-0.5-2.7-0.5-4.9V92.3c0-2.9,0.3-5.1,0.8-6.6
		s1.5-2.6,3-3.5c1.5-0.9,3.3-1.3,5.5-1.3c1.8,0,3.3,0.3,4.7,0.9c1.4,0.6,2.4,1.4,3.1,2.2c0.7,0.9,1.2,1.9,1.4,3
		C99.1,88.2,99.3,89.9,99.3,92.3z M91.3,89.7c0-1.7-0.1-2.8-0.2-3.2s-0.6-0.6-1.2-0.6s-1,0.2-1.2,0.7s-0.3,1.5-0.3,3.2v15.6
		c0,1.9,0.1,3,0.3,3.4s0.6,0.6,1.2,0.6s1-0.2,1.2-0.7s0.3-1.5,0.3-3v-16H91.3z"/>
	<path class="st4" d="M121,92.3V103c0,2.4-0.1,4.2-0.4,5.3c-0.3,1.1-0.8,2.1-1.6,3.1s-1.8,1.7-3,2.1c-1.2,0.4-2.5,0.6-3.9,0.6
		c-1.9,0-3.5-0.2-4.8-0.7c-1.3-0.4-2.3-1.1-3-2.1c-0.8-0.9-1.3-1.9-1.6-3c-0.3-1-0.5-2.7-0.5-4.9V92.3c0-2.9,0.3-5.1,0.8-6.6
		s1.5-2.6,3-3.5c1.5-0.9,3.3-1.3,5.5-1.3c1.8,0,3.3,0.3,4.7,0.9c1.4,0.6,2.4,1.4,3.1,2.2c0.7,0.9,1.2,1.9,1.4,3
		C120.9,88.2,121,89.9,121,92.3z M113,89.7c0-1.7-0.1-2.8-0.2-3.2s-0.6-0.6-1.2-0.6s-1,0.2-1.2,0.7s-0.3,1.5-0.3,3.2v15.6
		c0,1.9,0.1,3,0.3,3.4s0.6,0.6,1.2,0.6s1-0.2,1.2-0.7s0.3-1.5,0.3-3v-16H113z"/>
	<path class="st4" d="M142.7,92.3V103c0,2.4-0.1,4.2-0.4,5.3c-0.3,1.1-0.8,2.1-1.6,3.1s-1.8,1.7-3,2.1c-1.2,0.4-2.5,0.6-3.9,0.6
		c-1.9,0-3.5-0.2-4.8-0.7c-1.3-0.4-2.3-1.1-3-2.1c-0.8-0.9-1.3-1.9-1.6-3c-0.3-1-0.5-2.7-0.5-4.9V92.3c0-2.9,0.3-5.1,0.8-6.6
		s1.5-2.6,3-3.5c1.5-0.9,3.3-1.3,5.5-1.3c1.8,0,3.3,0.3,4.7,0.9c1.4,0.6,2.4,1.4,3.1,2.2c0.7,0.9,1.2,1.9,1.4,3
		C142.6,88.2,142.7,89.9,142.7,92.3z M134.7,89.7c0-1.7-0.1-2.8-0.2-3.2s-0.6-0.6-1.2-0.6c-0.6,0-1,0.2-1.2,0.7s-0.3,1.5-0.3,3.2
		v15.6c0,1.9,0.1,3,0.3,3.4s0.6,0.6,1.2,0.6s1-0.2,1.2-0.7s0.3-1.5,0.3-3v-16H134.7z"/>
</g>
<g>
	<path class="st6" d="M163.6,96.3h-4.8c0.7,0.7,1.2,1.6,1.4,2.9h3.4v1.8h-3.4c-0.4,3-2.7,4.8-6.1,5c2.1,2.2,4.6,5.2,7,8.1h-3.9
		c-2-2.4-4.2-5.1-6.8-7.8v-2.5h1.8c2.8,0,4.3-1.1,4.6-2.7h-6.3v-2h6.2c-0.4-1.3-1.8-2.1-4.1-2.1h-2.2v-2.6h13.2L163.6,96.3
		L163.6,96.3z"/>
</g>
<g>
	<path class="st4" d="M162.7,95.8h-4.8c0.7,0.7,1.2,1.6,1.4,2.9h3.4v1.8h-3.4c-0.4,3-2.7,4.8-6.1,5c2.1,2.2,4.6,5.2,7,8.1h-3.9
		c-2-2.4-4.2-5.1-6.8-7.8v-2.5h1.8c2.8,0,4.3-1.1,4.6-2.7h-6.3v-1.8h6.2c-0.4-1.3-1.8-2.1-4.1-2.1h-2.2v-2.6h13.2L162.7,95.8
		L162.7,95.8z"/>
</g>
</svg>
