<svg xmlns="http://www.w3.org/2000/svg" viewBox="0 0 32 32" fill="#fff"><path d="M0 31.2v-1.6h32v1.6H0z"/><path d="M3.2 29.6H1.6v-6.4h1.6v6.4zM11.2 29.6H9.6V16.8h1.6v12.8zM17.6 29.6H16v-8h1.6v8zM30.4 29.6h-1.6V12h1.6v17.6zM3.84 17.28l-1.28-.96 6.4-6.4 1.28.96zM10.633 10.966l1.131-1.131 4.8 4.8-1.131 1.131zM18.166 15.766l-1.131-1.131 11.2-11.2 1.131 1.131z"/><path d="M2.4 15.2a2.4 2.4 0 1 0 0 4.8 2.4 2.4 0 0 0 0-4.8zm0 1.6a.8.8 0 1 1-.8.8.8.8 0 0 1 .8-.8zM10.4 7.2a2.4 2.4 0 1 0 0 4.8 2.4 2.4 0 0 0 0-4.8zm0 1.6a.8.8 0 1 1-.8.8.8.8 0 0 1 .8-.8zM16.8 13.6a2.4 2.4 0 1 0 0 4.8 2.4 2.4 0 0 0 0-4.8zm0 1.6a.8.8 0 1 1-.8.8.8.8 0 0 1 .8-.8zM29.6.8a2.4 2.4 0 1 0 0 4.8 2.4 2.4 0 0 0 0-4.8zm0 1.6a.8.8 0 1 1-.8.8.8.8 0 0 1 .8-.8z"/></svg>