<svg xmlns="http://www.w3.org/2000/svg" viewBox="0 0 21 13"><defs><style>.cls-2{fill:#c9d9ab}</style></defs><g id="Слой_2" data-name="Слой 2"><g id="Слой_1-2" data-name="Слой 1"><path fill="#77a02e" d="M0 0h21v13H0z"/><path class="cls-2" d="M10 0h1v13h-1zM7.99 5h1v3h-1zM3 2.99h1v7.02H3zM11.99 5h1v3h-1z"/><path class="cls-2" transform="rotate(-90 10.5 4.5)" d="M10 3h1v3h-1z"/><path class="cls-2" transform="rotate(-90 10.5 8.5)" d="M10 7h1v3h-1z"/><path class="cls-2" transform="rotate(-90 2 9.5)" d="M1.5 7.5h1v4h-1z"/><path class="cls-2" transform="rotate(-90 2 3.49)" d="M1.5 1.49h1v4h-1z"/><path class="cls-2" transform="rotate(-90 1.505 6.495)" d="M1 5.99h1v1H1z"/><path class="cls-2" transform="rotate(180 17.5 6.5)" d="M17 2.99h1v7.02h-1z"/><path class="cls-2" transform="rotate(90 19 3.5)" d="M18.5 1.5h1v4h-1z"/><path class="cls-2" transform="rotate(90 19 9.51)" d="M18.5 7.51h1v4h-1z"/><path class="cls-2" transform="rotate(90 19.495 6.505)" d="M19 6h1v1h-1z"/></g></g></svg>