<svg width="25" height="25" xmlns="http://www.w3.org/2000/svg"><g fill="none" fill-rule="evenodd"><path fill="#68B612" d="M.78 6.63l11.698 5.848L24.177 6.63v12.478l-11.699 5.85L.78 19.107z"/><path fill="#284704" d="M.78 7.799v3.646l11.66 5.713 11.737-5.733V7.8l-11.699 5.73z"/><path fill="#68B612" d="M12.478 24.957V12.478L1.56 7.02H.78v12.088z"/><path fill="#284704" d="M.78 7.799v3.646l11.66 5.713.038-.02v-3.626.02z"/><path fill="#7ED321" d="M0 6.22L12.478 0l12.479 6.22v.819l-12.479 6.22L0 7.058z"/><path d="M19.634 1.97c-.41-.742-1.287-1.19-2.32-1.19-2.36 0-4.017 2.203-4.836 3.607C11.66 2.983 9.983.799 7.643.799c-1.501 0-2.574.917-2.574 2.165 0 2.222 2.437 3.665 7.331 3.665s7.487-1.852 7.487-3.646c0-.35-.078-.702-.253-1.014zM8.15 4.366c-.546-.37-.741-.78-.741-1.052 0-.332.312-.585.76-.585 1.053 0 1.892 1.384 2.36 2.34-1.229-.098-1.95-.43-2.38-.703zm8.657 0c-.43.273-1.15.605-2.379.702.448-.955 1.287-2.34 2.36-2.34.448 0 .76.254.76.586 0 .273-.195.682-.741 1.052z" fill="#EFEFEF" fill-rule="nonzero"/><path fill="#417505" d="M0 6.24l12.478 6.102 12.479-6.103v4.036l-12.518 6.103L0 10.275z"/><path fill="#EFEFEF" d="M17.158 10.587v-.448l-4.68-2.535L7.8 10.139v.448L4.68 9.222v-.624l7.643-4.036.156.078.156-.078 7.643 4.017v.624z"/><path fill="#DCDCDC" d="M17.158 10.139v12.458l3.12-1.56V8.58z"/><path d="M4.68 21.057l3.119 1.56V10.158l-3.12-1.58v12.48z" fill="#D1D1D1"/></g></svg>