<svg xmlns="http://www.w3.org/2000/svg" xmlns:xlink="http://www.w3.org/1999/xlink" width="29" height="29"><defs><path id="a" d="M385.777 688.4c-.103.104-.31.104-.412.104-.103 0-.31 0-.412-.104l-1.031-1.035a.502.502 0 0 1 0-.725.497.497 0 0 1 .721 0l1.031 1.035c.206.104.206.518.103.725zm-4.66-4.66c-.104.103-.207.103-.413.103s-.31 0-.412-.103l-1.03-1.036a.502.502 0 0 1 0-.725.497.497 0 0 1 .72 0l1.031 1.036c.206.103.206.517.103.725zm-.405 5.903l-3.936.622-.621 3.935a.446.446 0 0 1-.415.415h-.103c-.207 0-.414-.104-.414-.311l-1.761-3.522-3.936.622a.57.57 0 0 1-.518-.31c-.103-.208-.103-.415.104-.622l2.796-2.797-1.76-3.521c-.104-.207-.104-.414.103-.622.207-.207.414-.207.622-.103l3.52 1.76 2.797-2.796c.208-.207.415-.207.622-.103a.57.57 0 0 1 .31.517l-.62 3.936 3.52 1.76a.57.57 0 0 1 .311.519c-.207.414-.414.621-.621.621zm-6.318 10.15c-.104.104-.31.104-.414.104-.104 0-.311 0-.415-.104l-1.035-1.035a.5.5 0 0 1 0-.725.5.5 0 0 1 .725 0l1.035 1.035c.208.104.208.518.104.725zm-4.66-4.66c-.104.103-.208.103-.415.103s-.31 0-.414-.103l-1.036-1.036a.5.5 0 0 1 0-.725.5.5 0 0 1 .725 0l1.036 1.036c.207.103.207.517.103.725zm-4.661-4.661c-.104.103-.311.103-.415.103-.103 0-.31 0-.414-.103l-1.036-1.036a.5.5 0 0 1 0-.725.5.5 0 0 1 .725 0l1.036 1.036c.207.103.207.518.104.725zm9.528-13.257a.505.505 0 0 1 .73 0l1.04 1.035a.499.499 0 0 1 0 .725c0 .208-.208.208-.312.208-.104 0-.313 0-.417-.104l-1.04-1.036c-.105-.207-.105-.621 0-.828zm13.36 9.735c0-.414.208-.828.415-1.139.104-.103.104-.207.104-.414 0-.104-.104-.31-.104-.414l-10.46-10.358c-.104-.103-.208-.103-.415-.103s-.31.103-.414.103c-.622.622-1.554.622-2.175 0a.5.5 0 0 0-.725 0c-3.107 3.108-10.46 10.565-13.672 13.672a.5.5 0 0 0 0 .725c.311.31.415.725.415 1.036 0 .414-.208.828-.415 1.139-.103.103-.103.207-.103.414 0 .104.103.31.103.414l10.565 10.565c.103.103.207.103.414.103s.31-.103.414-.103c.622-.622 1.657-.622 2.175 0 .104.103.207.103.414.103.208 0 .311-.103.415-.103l13.671-13.672c.104-.103.104-.207.104-.414 0-.104-.104-.31-.104-.414-.414-.311-.621-.725-.621-1.14z"/></defs><use fill="#4a9aeb" xlink:href="#a" transform="translate(-360 -674)"/></svg>