<?xml version="1.0" encoding="utf-8"?>
<!-- Generator: Adobe Illustrator 21.1.0, SVG Export Plug-In . SVG Version: 6.00 Build 0)  -->
<svg version="1.1" id="Layer_1" xmlns="http://www.w3.org/2000/svg" xmlns:xlink="http://www.w3.org/1999/xlink" x="0px" y="0px"
	 viewBox="0 0 26 26" style="enable-background:new 0 0 26 26;" xml:space="preserve">
<style type="text/css">
	.st0{fill:#4A9AEB;}
</style>
<g>
	<path class="st0" d="M5.2,9.4C6.2,9,6.7,8,6.7,6.6V6.1c0-2.2-1-3.3-3.3-3.3H0V17h3.5c2.2,0,3.4-1.2,3.4-3.4v-1.2
		C6.9,11,6.4,9.9,5.2,9.4z M2.2,4.8h1.1c0.8,0,1.1,0.4,1.1,1.5v0.8c0,1.1-0.5,1.5-1.3,1.5H2.2V4.8z M4.7,13.6c0,1.1-0.4,1.4-1.2,1.4
		H2.2v-4.4h1c1,0,1.4,0.4,1.4,1.7V13.6z"/>
	<polygon class="st0" points="10.5,15 10.5,10.8 13.5,10.8 13.5,8.8 10.5,8.8 10.5,4.8 14.3,4.8 14.3,2.8 8.2,2.8 8.2,17 13.7,17 
		13,15 	"/>
	<path class="st0" d="M19.6,5c0-0.1,0.1-0.1,0.1-0.1h2c0.1,0,0.1-0.1,0.1-0.1V3c0-0.1-0.1-0.1-0.1-0.1h-6.6c-0.1,0-0.1,0.1-0.1,0.1
		v1.7c0,0.1,0.1,0.1,0.1,0.1h2c0.1,0,0.1,0.1,0.1,0.1v7l2.2,0.7V5z"/>
	<polygon class="st0" points="21.5,17.6 24.9,15.4 19.6,13.7 17.4,13 13.1,11.7 13.1,11.7 13.1,11.7 16.8,23.5 18.9,20.1 23.5,24.6 
		26,22.1 	"/>
</g>
</svg>
