<svg xmlns="http://www.w3.org/2000/svg" xmlns:xlink="http://www.w3.org/1999/xlink" width="17" height="18"><defs><path id="a" d="M976.515 594.636a.813.813 0 0 0 .808-.818.813.813 0 0 0-.808-.818h-4.04a.813.813 0 0 0-.808.818c0 .452.361.818.808.818zm-1.205 4.5a.814.814 0 0 0-.81-.818.814.814 0 0 0-.81.818v4.091c0 .452.363.818.81.818.447 0 .81-.366.81-.818zm-6.31-2.694a.824.824 0 0 0 0-1.157.803.803 0 0 0-1.145 0l-1.619 1.636a.824.824 0 0 0 0 1.158c.316.32.829.32 1.145 0zm12.143-1.157a.803.803 0 0 0-1.145 0 .824.824 0 0 0 0 1.157l1.619 1.637c.316.32.829.32 1.145 0a.824.824 0 0 0 0-1.158zm-12.715 7.942c0-3.389 2.718-6.136 6.071-6.136 3.353 0 6.071 2.747 6.071 6.136a6.149 6.149 0 0 1-1.68 4.238 6.02 6.02 0 0 1-4.391 1.899c-3.353 0-6.071-2.748-6.071-6.137zm11.633 5.368a7.792 7.792 0 0 0 2.128-5.368c0-4.292-3.443-7.772-7.69-7.772s-7.69 3.48-7.69 7.772c0 4.293 3.443 7.773 7.69 7.773a7.63 7.63 0 0 0 5.562-2.405z"/></defs><use fill="#fff" xlink:href="#a" transform="translate(-966 -593)"/></svg>