<?xml version="1.0" encoding="utf-8"?>
<!-- Generator: Adobe Illustrator 21.1.0, SVG Export Plug-In . SVG Version: 6.00 Build 0)  -->
<svg version="1.1" id="Layer_1" xmlns="http://www.w3.org/2000/svg" xmlns:xlink="http://www.w3.org/1999/xlink" x="0px" y="0px"
	 viewBox="0 0 30.7 36" style="enable-background:new 0 0 30.7 36;" xml:space="preserve">
<style type="text/css">
	.st0{fill:#FFFFFF;}
</style>
<title>ico-android</title>
<g>
	<path class="st0" d="M2.2,11.7L2.2,11.7c-1.3,0-2.2,1-2.2,2.1v9.3c0,1.2,1,2.1,2.1,2.1h0.1c1.2,0,2.1-1,2.1-2.1v-9.3
		C4.4,12.7,3.4,11.7,2.2,11.7z"/>
	<path class="st0" d="M5.4,26.8c0,1.1,0.9,2,2,2h2.1v5c0,1.2,1,2.1,2.1,2.1h0.1c1.2,0,2.1-1,2.1-2.1v-5h2.9v5c0,1.2,1,2.1,2.1,2.1
		h0.1c1.2,0,2.1-1,2.1-2.1v-5h2.1c1.1,0,2-0.9,2-2V12.1H5.4V26.8z"/>
	<path class="st0" d="M20.3,3.1L22,0.6c0.1-0.2,0.1-0.4-0.1-0.5C21.7,0,21.5,0,21.4,0.2c0,0,0,0,0,0l-1.7,2.7
		c-2.8-1.1-5.8-1.1-8.6,0L9.3,0.2C9.2,0,9,0,8.8,0.1C8.7,0.2,8.6,0.4,8.7,0.6l1.7,2.6c-3,1.3-4.9,4.2-5.1,7.5c0,0.2,0,0.4,0,0.6h20
		c0-0.2,0-0.4,0-0.6C25.3,7.4,23.3,4.4,20.3,3.1z M10.7,7.8c-0.5,0-1-0.4-1-1c0-0.5,0.4-1,1-1c0.5,0,1,0.4,1,1
		C11.7,7.3,11.3,7.8,10.7,7.8C10.7,7.8,10.7,7.8,10.7,7.8L10.7,7.8z M20,7.8c-0.5,0-1-0.4-1-1c0-0.5,0.4-1,1-1c0.5,0,1,0.4,1,1
		C20.9,7.3,20.5,7.8,20,7.8C20,7.8,20,7.8,20,7.8L20,7.8z"/>
	<path class="st0" d="M28.6,11.7L28.6,11.7c-1.3,0-2.2,1-2.2,2.1v9.3c0,1.2,1,2.1,2.1,2.1h0.1c1.2,0,2.1-1,2.1-2.1v-9.3
		C30.7,12.7,29.7,11.7,28.6,11.7z"/>
</g>
</svg>
