<svg id="Layer_1" data-name="Layer 1" xmlns="http://www.w3.org/2000/svg" viewBox="0 0 25.997 20.958"><defs><style>.cls-1{fill:#4a9aeb;}</style></defs><title>ico-bottom-live-dealers</title><path class="cls-1" d="M.007,2.459H1.92V12.895H5.069v1.74H.007Z" transform="translate(-0.007 -2.459)"/><path class="cls-1" d="M7.264,2.459H9.177V14.635H7.264Z" transform="translate(-0.007 -2.459)"/><path class="cls-1" d="M14.816,12.39l1.462-9.931h1.756L16.155,14.635H13.3L11.423,2.459h1.93Z" transform="translate(-0.007 -2.459)"/><path class="cls-1" d="M22.194,7.59h2.627V9.329H22.194v3.566H25.5v1.74H20.281V2.459H25.5V4.2H22.194Z" transform="translate(-0.007 -2.459)"/><path class="cls-1" d="M.066,16.227H1.833c1.117,0,1.665.619,1.665,1.756v3.6c0,1.139-.548,1.758-1.665,1.758H.066Zm1.117,1.015v5.079h.63c.355,0,.569-.183.569-.691v-3.7c0-.508-.214-.691-.569-.691Z" transform="translate(-0.007 -2.459)"/><path class="cls-1" d="M5.244,19.222H6.778v1.017H5.244v2.082H7.173v1.015H4.127V16.227H7.173v1.015H5.244Z" transform="translate(-0.007 -2.459)"/><path class="cls-1" d="M11.4,23.336H10.269l-.193-1.29H8.705l-.194,1.29H7.486l1.137-7.109h1.636ZM8.847,21.081H9.923l-.538-3.6Z" transform="translate(-0.007 -2.459)"/><path class="cls-1" d="M11.831,16.227h1.117v6.094h1.839v1.015H11.831Z" transform="translate(-0.007 -2.459)"/><path class="cls-1" d="M16.31,19.222h1.534v1.017H16.31v2.082h1.929v1.015H15.192V16.227h3.046v1.015H16.31Z" transform="translate(-0.007 -2.459)"/><path class="cls-1" d="M21.182,23.336a2.2,2.2,0,0,1-.1-.874V21.345c0-.66-.224-.9-.732-.9h-.385v2.895H18.846V16.227h1.685c1.158,0,1.656.538,1.656,1.634v.559a1.418,1.418,0,0,1-.731,1.442c.558.234.742.772.742,1.514v1.1a2.092,2.092,0,0,0,.122.864Zm-1.218-6.094v2.184H20.4c.416,0,.671-.183.671-.752v-.7c0-.507-.173-.731-.569-.731Z" transform="translate(-0.007 -2.459)"/><path class="cls-1" d="M24.348,16.144c1.088,0,1.646.65,1.646,1.789v.222H24.937v-.295c0-.507-.2-.7-.558-.7s-.559.193-.559.7C23.82,19.324,26,19.6,26,21.629c0,1.137-.568,1.787-1.665,1.787s-1.665-.65-1.665-1.787v-.436h1.056V21.7c0,.508.224.691.579.691s.578-.183.578-.691c0-1.462-2.184-1.736-2.184-3.767C22.7,16.794,23.262,16.144,24.348,16.144Z" transform="translate(-0.007 -2.459)"/></svg>