<?xml version="1.0" encoding="utf-8"?>
<!-- Generator: Adobe Illustrator 21.1.0, SVG Export Plug-In . SVG Version: 6.00 Build 0)  -->
<svg version="1.1" id="Layer_1" xmlns="http://www.w3.org/2000/svg" xmlns:xlink="http://www.w3.org/1999/xlink" x="0px" y="0px"
	 viewBox="0 0 26 26" style="enable-background:new 0 0 26 26;" xml:space="preserve">
<style type="text/css">
	.st0{fill:#4A9AEB;}
</style>
<g>
	<polygon class="st0" points="23.7,16.1 19.2,14.7 17.4,14.1 13.7,13 16.9,23 18.6,20.1 22.5,23.9 24.7,21.8 20.8,18 	"/>
	<path class="st0" d="M5.9,14.5H2.3V2.2c0-0.1-0.1-0.1-0.1-0.1h-2C0.1,2.1,0,2.1,0,2.2v14.2c0,0.1,0.1,0.1,0.1,0.1h5.8
		C6,16.5,6,16.5,6,16.4v-1.8C6,14.5,6,14.5,5.9,14.5z"/>
	<path class="st0" d="M9.2,2.1h-2C7.1,2.1,7,2.1,7,2.2v14.2c0,0.1,0.1,0.1,0.1,0.1h2c0.1,0,0.1-0.1,0.1-0.1V2.2
		C9.3,2.1,9.2,2.1,9.2,2.1z"/>
	<path class="st0" d="M18.1,13.6V2.2c0-0.1-0.1-0.1-0.1-0.1h-1.8c-0.1,0-0.1,0.1-0.1,0.1v8.5l-2.3-8.6c0-0.1-0.1-0.1-0.1-0.1h-2.6
		c-0.1,0-0.1,0.1-0.1,0.1v14.2c0,0.1,0.1,0.1,0.1,0.1h1.8c0.1,0,0.1-0.1,0.1-0.1v-3.5V12V6.1l1.7,6.5L18.1,13.6z"/>
	<path class="st0" d="M25.9,4.1C25.9,4.1,26,4.1,26,4V2.2c0-0.1-0.1-0.1-0.1-0.1h-6c-0.1,0-0.1,0.1-0.1,0.1v11.9l5.7,1.8l-1,0.6h1.4
		c0.1,0,0.1-0.1,0.1-0.1v-1.8c0-0.1-0.1-0.1-0.1-0.1h-3.8v-4.2h3c0.1,0,0.1-0.1,0.1-0.1V8.3c0-0.1-0.1-0.1-0.1-0.1h-3v-4H25.9z"/>
</g>
</svg>
