<svg id="Layer_1" data-name="Layer 1" xmlns="http://www.w3.org/2000/svg" viewBox="0 0 18.656 12.826"><defs><style>.cls-1{fill:#4a9aeb;}</style></defs><title>ico-bottom_balance</title><path class="cls-1" d="M17.49,12.826a1.166,1.166,0,0,0,1.166-1.166v-7H0v7a1.167,1.167,0,0,0,1.166,1.166m13.409-2.332a1.738,1.738,0,0,1-1.166-.454,1.749,1.749,0,1,1,0-2.591,1.746,1.746,0,1,1,1.166,3.044Z"/><path class="cls-1" d="M17.49,0H1.166A1.168,1.168,0,0,0,0,1.166V2.332H18.656V1.166A1.167,1.167,0,0,0,17.49,0Z"/></svg>