<svg id="Layer_1" data-name="Layer 1" xmlns="http://www.w3.org/2000/svg" viewBox="0 0 24.201 25.897"><defs><style>.cls-1{fill:#4a9aeb;}</style></defs><title>ico-bottom-wheel</title><path class="cls-1" d="M13.016,16.181a2.331,2.331,0,1,1,2.322-2.33A2.336,2.336,0,0,1,13.016,16.181Z" transform="translate(-0.899 -0.051)"/><path class="cls-1" d="M12.994,5.416,10.257.051H15.7Z" transform="translate(-0.899 -0.051)"/><path class="cls-1" d="M9.656,12.237,5.034,8.969A9.288,9.288,0,0,0,3.68,13.235H9.34A3.687,3.687,0,0,1,9.656,12.237Z" transform="translate(-0.899 -0.051)"/><path class="cls-1" d="M11.242,10.579,9.421,5.218A9.369,9.369,0,0,0,5.745,7.966l4.622,3.268A3.726,3.726,0,0,1,11.242,10.579Z" transform="translate(-0.899 -0.051)"/><path class="cls-1" d="M11.75,4.591a9.327,9.327,0,0,0-1.165.233l1.821,5.361a3.707,3.707,0,0,1,1.192,0l1.821-5.361a9.326,9.326,0,0,0-1.181-.235L13,7.04Z" transform="translate(-0.899 -0.051)"/><path class="cls-1" d="M14.762,10.579a3.723,3.723,0,0,1,.8.581l4.527-3.4a9.366,9.366,0,0,0-3.506-2.543Z" transform="translate(-0.899 -0.051)"/><path class="cls-1" d="M16.664,13.235h5.66a9.289,9.289,0,0,0-1.5-4.492l-4.527,3.4A3.686,3.686,0,0,1,16.664,13.235Z" transform="translate(-0.899 -0.051)"/><path class="cls-1" d="M14.762,17.12l1.821,5.361a9.369,9.369,0,0,0,3.676-2.748l-4.622-3.268A3.726,3.726,0,0,1,14.762,17.12Z" transform="translate(-0.899 -0.051)"/><path class="cls-1" d="M13,17.563a3.738,3.738,0,0,1-.6-.048l-1.821,5.361a9.392,9.392,0,0,0,4.834,0L13.6,17.515A3.738,3.738,0,0,1,13,17.563Z" transform="translate(-0.899 -0.051)"/><path class="cls-1" d="M16.348,15.463l4.622,3.268a9.288,9.288,0,0,0,1.355-4.267h-5.66A3.687,3.687,0,0,1,16.348,15.463Z" transform="translate(-0.899 -0.051)"/><path class="cls-1" d="M9.34,14.464H3.68a9.289,9.289,0,0,0,1.5,4.492l4.527-3.4A3.686,3.686,0,0,1,9.34,14.464Z" transform="translate(-0.899 -0.051)"/><path class="cls-1" d="M10.443,16.54l-4.527,3.4a9.367,9.367,0,0,0,3.506,2.543l1.821-5.361A3.724,3.724,0,0,1,10.443,16.54Z" transform="translate(-0.899 -0.051)"/><path class="cls-1" d="M24.885,11.634a11.849,11.849,0,0,0-6.4-8.581,10.776,10.776,0,0,0-2.341-.9l-.291.894a10.889,10.889,0,0,1,6.2,4.282,10.838,10.838,0,0,1,1.98,8.195,11.172,11.172,0,0,1-21.976.606A10.69,10.69,0,0,1,3.062,8.745a11.032,11.032,0,0,1,7.074-5.692l-.3-.9a11.506,11.506,0,0,0-2.6,1.036,12.1,12.1,0,0,0,3.6,22.556c.458.078.919.134,1.378.2H13.7c.074-.014.148-.031.222-.042.611-.094,1.233-.144,1.833-.286A12.065,12.065,0,0,0,24.885,11.634Z" transform="translate(-0.899 -0.051)"/></svg>