<svg width="24" height="24" xmlns="http://www.w3.org/2000/svg"><g fill="#4A9AEB" fill-rule="evenodd"><path d="M14 15.946l10-6.399V7.733l-1 .64v.377l-.356-.148-1.026.656.805.335-1.82 1.158-.799-.332L14 14.133zm0 3l10-6.399v-1.814l-1 .64v.377l-.356-.148L14 17.133z"/><path d="M12 13.691v1.118l-7.797-3.898-.844.46-1.78-.89.844-.46-1.089-.545L1 9.658v-.349l-1-.5v1.882l12 6v1.118L1.334 12.476 1 12.658v-.349l-1-.5v1.882l12.055 6.028A.497.497 0 0 0 12.5 20a.493.493 0 0 0 .48-.401l.035-.023c-.004-.025-.015-.049-.015-.076v-8a.5.5 0 0 1 1 0v1.446l10-6.4V5.5a.5.5 0 0 0-1 0v.25L12 1.167V.5a.5.5 0 0 0-1 0v.703L1 6.658V6.5a.5.5 0 0 0-1 0v1.191l12 6zM12 2.25l10.423 4.343-1.82 1.158L12 4.167V2.25zm0 3l7.574 3.156-1.82 1.158L12 7.167V5.25zm-1 1.953L6.229 9.806l-1.78-.89L11 5.342v1.861zm0-4.861v1.861L3.36 8.371l-1.78-.89L11 2.342z" fill-rule="nonzero"/><path d="M12.77 20.921a.499.499 0 0 1-.494.026L0 14.809V17.5a.5.5 0 0 0 .276.447l12 6a.508.508 0 0 0 .493-.025l11-7A.5.5 0 0 0 24 16.5v-2.767l-11.23 7.188z"/></g></svg>