<svg xmlns="http://www.w3.org/2000/svg" xmlns:xlink="http://www.w3.org/1999/xlink" width="19" height="18"><defs><path id="a" d="M38.84 135.28c0-.2.17-.37.39-.37s.39.17.39.38c0 .2-.17.37-.39.37a.38.38 0 0 1-.39-.38z"/><path id="b" d="M40.4 135.28c0 .63-.52 1.13-1.17 1.13-.64 0-1.16-.5-1.16-1.13 0-.62.52-1.12 1.16-1.12.65 0 1.17.5 1.17 1.13zm-3.11 0c0 1.04.87 1.88 1.94 1.88h3.5v-3.75h-3.5c-1.07 0-1.94.84-1.94 1.88z"/><path id="c" d="M39.23 137.9a2.68 2.68 0 0 1-2.72-2.62 2.68 2.68 0 0 1 2.72-2.62h3.5v-1.13a2.68 2.68 0 0 0-2.72-2.62H26.79a2.68 2.68 0 0 0-2.72 2.62v7.5a2.68 2.68 0 0 0 2.72 2.63H40c1.5 0 2.72-1.18 2.72-2.63v-1.12z"/><path id="d" d="M42.3 129a4.25 4.25 0 0 0-2.65-2.18l.7 1.38c.75.07 1.42.36 1.95.8z"/><path id="e" d="M26.42 128.2l2.95-1.54h-1.04c-1.7 0-3.16.96-3.84 2.35.53-.45 1.2-.74 1.93-.82z"/><path id="f" d="M33.55 128.17l4.58-2.52a2.67 2.67 0 0 0-1.42-1.04 2.8 2.8 0 0 0-2.11.19l-6.47 3.37z"/><path id="g" d="M39.47 128.17l-.96-1.87-3.38 1.87z"/></defs><use fill="#4a9aeb" xlink:href="#a" transform="translate(-24 -124)"/><use fill="#4a9aeb" xlink:href="#b" transform="translate(-24 -124)"/><use fill="#4a9aeb" xlink:href="#c" transform="translate(-24 -124)"/><use fill="#4a9aeb" xlink:href="#d" transform="translate(-24 -124)"/><g fill="#4a9aeb" transform="translate(-24 -124)"><use xlink:href="#e"/><use xlink:href="#f"/></g><use fill="#4a9aeb" xlink:href="#g" transform="translate(-24 -124)"/></svg>