<?xml version="1.0" encoding="utf-8"?>
<!-- Generator: Adobe Illustrator 21.1.0, SVG Export Plug-In . SVG Version: 6.00 Build 0)  -->
<svg version="1.1" id="Layer_1" xmlns="http://www.w3.org/2000/svg" xmlns:xlink="http://www.w3.org/1999/xlink" x="0px" y="0px"
	 viewBox="0 0 20 19" style="enable-background:new 0 0 20 19;" xml:space="preserve">
<style type="text/css">
	.st0{fill:#4A9AEB;}
</style>
<g>
	<path class="st0" d="M18.8,6.1c-0.4-1-0.9-1.9-1.6-2.7c-1.4-1.7-3.4-2.8-5.6-3.2C11.1,0.1,10.5,0,10,0C9.5,0,8.9,0.1,8.4,0.1
		C6.2,0.5,4.2,1.7,2.8,3.3C2.1,4.1,1.5,5.1,1.2,6.1C0.7,7.1,0.5,8.3,0.5,9.5c0,1.1,0.2,2.2,0.6,3.2c0.4,1,0.9,1.9,1.5,2.8
		c1.4,1.8,3.5,3,5.8,3.4c0.5,0.1,1,0.1,1.6,0.1c0.5,0,1.1-0.1,1.6-0.1c2.3-0.4,4.4-1.6,5.8-3.4c0.7-0.8,1.2-1.8,1.5-2.8
		c0.4-1,0.6-2.1,0.6-3.2C19.5,8.3,19.3,7.1,18.8,6.1z M17.7,6.7l-1.7,1c-0.3-1-0.9-2-1.6-2.7l1.7-1C16.8,4.8,17.4,5.7,17.7,6.7z
		 M15.1,9.5c0,2.8-2.3,5.1-5.1,5.1c-2.8,0-5.1-2.3-5.1-5.1c0-2.8,2.3-5.1,5.1-5.1C12.8,4.4,15.1,6.7,15.1,9.5z M10,1.3
		c0.5,0,1.1,0.1,1.6,0.2v1.9c-0.5-0.1-1-0.2-1.6-0.2c-0.5,0-1.1,0.1-1.6,0.2V1.4C8.9,1.3,9.5,1.3,10,1.3z M3.9,4l1.7,1
		C4.8,5.7,4.2,6.6,3.9,7.7l-1.7-1C2.6,5.7,3.2,4.8,3.9,4z M2.2,12l1.7-1c0.3,1.1,0.8,2,1.5,2.8l-1.7,1C3,14,2.5,13.1,2.2,12z
		 M10,17.7c-0.5,0-1.1-0.1-1.6-0.2v-1.9c0.5,0.1,1,0.2,1.6,0.2c0.5,0,1.1-0.1,1.6-0.2v1.9C11.1,17.7,10.5,17.7,10,17.7z M16.3,14.8
		l-1.7-1c0.7-0.8,1.3-1.7,1.5-2.8l1.7,1C17.5,13.1,17,14,16.3,14.8z"/>
	<path class="st0" d="M10.5,8.8C9.7,8.5,9.4,8.3,9.4,8c0-0.3,0.2-0.5,0.8-0.5c0.4,0,0.6,0.1,0.9,0.1c0.1,0,0.3,0,0.4,0
		c0.1-0.1,0.2-0.2,0.2-0.3l0,0c0.1-0.3-0.1-0.6-0.4-0.7c-0.2-0.1-0.5-0.1-0.8-0.1V6c0-0.2-0.2-0.5-0.4-0.5C9.8,5.5,9.6,5.8,9.6,6
		v0.4c-1,0.2-1.6,0.9-1.6,1.7c0,0.9,0.7,1.4,1.7,1.7c0.7,0.2,1,0.5,1,0.8c0,0.4-0.4,0.6-0.9,0.6c-0.4,0-0.8-0.1-1.1-0.2
		c-0.1,0-0.3,0-0.4,0c-0.1,0.1-0.2,0.2-0.2,0.3l0,0c-0.1,0.3,0.1,0.7,0.4,0.8c0.3,0.1,0.7,0.2,1.1,0.2v0.4c0,0.3,0.2,0.5,0.5,0.5
		l0,0c0.3,0,0.5-0.2,0.5-0.5v-0.5c1.1-0.2,1.7-0.9,1.7-1.8C12.1,9.7,11.7,9.2,10.5,8.8z"/>
</g>
</svg>
