<?xml version="1.0" encoding="utf-8"?>
<!-- Generator: Adobe Illustrator 21.1.0, SVG Export Plug-In . SVG Version: 6.00 Build 0)  -->
<svg version="1.1" id="Layer_1" xmlns="http://www.w3.org/2000/svg" xmlns:xlink="http://www.w3.org/1999/xlink" x="0px" y="0px"
	 viewBox="0 0 26 26" style="enable-background:new 0 0 26 26;" xml:space="preserve">
<style type="text/css">
	.st0{fill:#4A9AEB;}
</style>
<g>
	<path class="st0" d="M24.3,6.5c-1.2-2-2.7-3.6-4.7-4.7C17.5,0.6,15.4,0,13,0c-2.4,0-4.5,0.6-6.5,1.7c-2,1.2-3.6,2.7-4.7,4.7
		C0.6,8.5,0,10.6,0,13c0,2.4,0.6,4.5,1.7,6.5c1.2,2,2.7,3.6,4.7,4.7c2,1.2,4.2,1.7,6.5,1.7s4.5-0.6,6.5-1.7c2-1.2,3.6-2.7,4.7-4.7
		c1.2-2,1.7-4.2,1.7-6.5C26,10.6,25.4,8.5,24.3,6.5z M15.2,21.1c0,0.2-0.1,0.3-0.2,0.4c-0.1,0.1-0.2,0.2-0.4,0.2h-3.3
		c-0.2,0-0.3-0.1-0.4-0.2c-0.1-0.1-0.2-0.2-0.2-0.4v-3.3c0-0.2,0.1-0.3,0.2-0.4c0.1-0.1,0.2-0.2,0.4-0.2h3.3c0.2,0,0.3,0.1,0.4,0.2
		c0.1,0.1,0.2,0.2,0.2,0.4V21.1z M19.3,11.1c-0.1,0.4-0.3,0.8-0.5,1c-0.2,0.3-0.4,0.5-0.8,0.8c-0.3,0.3-0.6,0.5-0.8,0.6
		c-0.2,0.1-0.5,0.3-0.8,0.5c-0.4,0.2-0.7,0.5-0.9,0.8c-0.2,0.3-0.4,0.6-0.4,0.8c0,0.2-0.1,0.3-0.2,0.4c-0.1,0.1-0.2,0.2-0.4,0.2
		h-3.3c-0.2,0-0.3-0.1-0.4-0.2c-0.1-0.1-0.2-0.2-0.2-0.4v-0.6c0-0.8,0.3-1.5,0.9-2.1c0.6-0.7,1.2-1.1,2-1.5c0.5-0.2,0.9-0.5,1.2-0.8
		c0.2-0.3,0.3-0.6,0.3-1c0-0.4-0.2-0.7-0.6-1c-0.4-0.3-0.9-0.4-1.4-0.4c-0.6,0-1.1,0.1-1.5,0.4c-0.4,0.3-0.9,0.8-1.5,1.6
		c-0.1,0.1-0.2,0.2-0.4,0.2c-0.1,0-0.2,0-0.3-0.1L7.2,8.6C6.9,8.4,6.9,8.2,7.1,7.9c1.4-2.4,3.5-3.6,6.3-3.6c1,0,1.9,0.2,2.9,0.7
		c0.9,0.5,1.7,1.1,2.3,2c0.6,0.8,0.9,1.8,0.9,2.8C19.5,10.2,19.4,10.7,19.3,11.1z"/>
</g>
</svg>
