<svg id="Layer_1" data-name="Layer 1" xmlns="http://www.w3.org/2000/svg" viewBox="0 0 38.783 48"><defs><style>.cls-1{fill:#4a9aeb;}</style></defs><title>ico-profile</title><path id="a" class="cls-1" d="M6.9,25.695h.512c2.432,6.192,7.1,10.351,11.951,10.367S28.77,31.822,31.218,25.6h.64a4.528,4.528,0,0,0,4.112-4.8,4.8,4.8,0,0,0-2.928-4.608C33.154,5.408,27.33,0,19.363,0S5.555,5.408,5.667,16.271A4.8,4.8,0,0,0,2.739,20.8a4.528,4.528,0,0,0,4.129,4.893ZM30.642,36.4h-.736a15.343,15.343,0,0,1-10.479,4.5A15.487,15.487,0,0,1,8.915,36.4h-.7C4.5,36.878.659,40,.052,43.022v.288a2.976,2.976,0,0,0,2.368,3.472A101.063,101.063,0,0,0,18.579,48a97.435,97.435,0,0,0,17.759-1.5,2.96,2.96,0,0,0,2.4-3.429v-.011C38.114,40.078,34.274,36.91,30.642,36.4Z"/></svg>