<?xml version="1.0" encoding="utf-8"?>
<!-- Generator: Adobe Illustrator 21.1.0, SVG Export Plug-In . SVG Version: 6.00 Build 0)  -->
<svg version="1.1" id="Layer_1" xmlns="http://www.w3.org/2000/svg" xmlns:xlink="http://www.w3.org/1999/xlink" x="0px" y="0px"
	 viewBox="0 0 225 44" style="enable-background:new 0 0 225 44;" xml:space="preserve">
<style type="text/css">
	.st0{fill:#FFFFFF;}
	.st1{fill:#3486E3;}
</style>
<g>
	<path class="st0" d="M79.4,19.3c2.1-8.8-3.3-16-12.1-16h-8h-5.1h-5.1l-9.5,39.3h10.2l1.8-7.3h7.9c0.5,0,0.9,0,1.4-0.1l3.4,7.4H76
		l-5.2-11.2C74.9,28.5,78.2,24.2,79.4,19.3z M53.5,27.3l3.8-15.8h6.5c5.2,0,6.8,3.6,5.7,7.9c-1.1,4.4-4.2,7.9-9.5,7.9H53.5z"/>
	<g>
		<path class="st1" d="M150.4,25c-0.7-1.1-1.6-1.9-2.8-2.6c1.7-0.9,3.1-2,4.3-3.5c1.4-1.7,2.1-3.9,2.2-6.3c0.1-3-1-5.3-3.3-6.9
			c-2.2-1.6-5.5-2.4-9.7-2.4h-18.9l-9.5,39.3h20.7c5.3,0,9.6-1.1,12.9-3.1c3.4-2.1,5.2-5.3,5.3-9.5C151.7,28.1,151.3,26.4,150.4,25z
			 M126.5,26.6h10.2c5.2,0,5,2.5,5,3.4c-0.1,1.6-0.7,2.8-2,3.6c-1.3,0.9-3.2,1.3-5.5,1.3h-9.7L126.5,26.6z M141.7,17.7
			c-1.2,0.9-3,1.3-5.1,1.3h-8.3l1.9-7.9h8.5c5,0,5,2.3,4.9,3C143.5,15.7,142.9,16.9,141.7,17.7z"/>
		<polygon class="st1" points="186.1,11.6 188.1,3.4 159.5,3.4 150,42.6 179.3,42.6 181.4,34.4 161.9,34.4 163.7,26.7 180.1,26.7 
			182.1,18.7 165.7,18.7 167.4,11.6 		"/>
		<polygon class="st1" points="190.6,3.4 188.6,11.7 200,11.7 192.5,42.6 202.5,42.6 210,11.7 223,11.7 225,3.4 		"/>
	</g>
	<polygon class="st0" points="35.5,27.3 37.3,19.9 27.2,19.9 25.4,27.3 17.6,27.3 14.6,27.3 37.2,3.5 25.5,3.5 1.8,28.5 0.2,35.3 
		5.5,35.3 7,35.3 15.6,35.3 23.4,35.3 21.7,42.6 31.8,42.6 33.6,35.3 41.4,35.3 43.4,27.3 	"/>
	<path class="st0" d="M106.7,42.6h10.4l-7.2-39.2h-2.3h-8h-2.3L71.1,42.6h10.4l4.9-7.3h19.1L106.7,42.6z M91.7,27.3l9.6-14.3
		l2.6,14.3H91.7z"/>
</g>
</svg>
