<svg id="Layer_1" data-name="Layer 1" xmlns="http://www.w3.org/2000/svg" viewBox="0 0 512 512"><defs><style>.cls-1{fill:#f0efeb;}.cls-2{fill:#83ba3b;}</style></defs><title>rounded_icons2</title><circle class="cls-1" cx="256" cy="256" r="256"/><path class="cls-2" d="M432,230.09c-4.78-3.31-11.76-4.41-21-4.41H386.8L377.61,272H346l1.84-10.29h19.11l2.21-11.76H350l1.84-10.29h19.85L375,226h-39.7l-8.82,43.74H312.18L321,226H300l-8.82,43.74H276.89L285.71,226h-21l-9.19,46.32h-32l1.84-10.29h19.11l2.21-11.76H228L229.84,240h19.85l2.94-13.6H128.39l-7,36.39-14.7-36.39H85l-11.4,59.92H94.2l7-37.86,14,37.49h74.25L198.59,240H210l-9.19,46.32H395.62l5.51-29.41,9.19,29.41h20.58l-9.56-23.89,1.84-.37a18.34,18.34,0,0,0,11-6.25c2.94-3.31,4-7,4-11.76.74-7-1.84-11-6.25-14ZM171.39,271.62H139.78l1.84-10.29h19.85l2.21-11.76H143.83l1.84-10.29h31.61l-5.88,32.35ZM415.1,251.77c-1.84,1.1-5.15,1.84-9.19,1.84h-4l3.31-15.81h3.31c3.68,0,5.88.37,7.35,1.47a6.14,6.14,0,0,1,2.94,5.51,8.61,8.61,0,0,1-3.68,7Z"/></svg>