<svg id="Layer_1" data-name="Layer 1" xmlns="http://www.w3.org/2000/svg" viewBox="0 0 512 512"><defs><style>.cls-1{fill:#f0efeb;}.cls-2{fill:#02b9f1;}.cls-3{fill:#062f6f;}</style></defs><title>rounded_icons2</title><circle class="cls-1" cx="256" cy="256" r="256"/><path class="cls-2" d="M323.78,263.07v-34.8c0-2.65,1-4,3.65-4h11.93c2.32,0,3,.66,3.31,3,.33,1.33.66.66,1.33.33a19.4,19.4,0,0,1,16.9-3,15.93,15.93,0,0,1,8.29,4.64,1.56,1.56,0,0,0,2-.33c10.94-9.61,28.51-4.64,32.48,9.28a16.14,16.14,0,0,1,.33,4v56.35c0,2.65-.66,3.31-3.31,3.31H388.42c-2.32,0-3.31-1-3.31-3.31V248.82c0-2.65-1-4.64-3-5.3a7.08,7.08,0,0,0-7.29,1.33,5.28,5.28,0,0,0-1.33,4v49.06c0,3.31-.66,4.64-4.31,4.31H357.93c-2.32,0-3.31-1-3.31-3.31V248.82c0-1.66-.33-3.31-2-4.31-2.32-1.66-4.64-1.33-7-.66-2,.66-3,2.65-3,5v49.39c0,3-.66,3.65-4,3.65H327.43c-3,0-4-1-4-4C323.78,286.28,323.78,274.67,323.78,263.07Z"/><path class="cls-3" d="M212.41,268.71v24.86c0,5-3,8-8,8h-24.2c-7.62,0-13.59-3.31-16.57-10.61a19.45,19.45,0,0,1-1.33-7.62V266.72a17,17,0,0,1,12.26-15.91c2.65-1,5.63-1,8.29-1.33h6.3c3.65,0,5-2,4-5.3-.33-1.33-1.66-2-3.31-2H174c-3,0-4-1-4-4V227.27a2.64,2.64,0,0,1,3-3c8,0,15.91-.66,23.87.33,8.62,1,14.25,6,15.25,15.25a36,36,0,0,1,.33,6ZM181.59,276v5a3,3,0,0,0,3.31,3.31h5.3a3.13,3.13,0,0,0,3.31-3.31V270.7a3,3,0,0,0-3.31-3.31h-5.3c-2,0-3.31,1.33-3.31,3.65Z"/><path class="cls-3" d="M269.42,255.78v26.85c0,8-3.65,13.92-10.94,17.57a17.19,17.19,0,0,1-8,1.66H229c-2.65,0-3.65-1-3.65-3.65V286.28c0-2.65,1-3.65,3.65-3.65h15.25a11.28,11.28,0,0,0,3.31-.33c2-.33,3-1,2.65-3a2.78,2.78,0,0,0-3-3h-8.95A17.08,17.08,0,0,1,226.33,272c-4.64-4-6.63-9.28-6.63-15.25V227.94c0-3,1-4,4-4h10.94c3.65,0,4.31,1,4.31,4.31v25.85c0,2,1,2.65,3,3h5.63a3.13,3.13,0,0,0,3.31-3.31V226.94a2.78,2.78,0,0,1,3-3H267.1c2,0,3,1.33,3,3.31C269.42,237.22,269.42,246.5,269.42,255.78Z"/><path class="cls-3" d="M108,263.4V227.94c0-2.32,1-3.31,3-3.31,9.94,0,20.22-.33,30.16,0s16.57,7.62,16.57,17.24v19.56c-.33,7-3,12.6-9.61,15.91a15.11,15.11,0,0,1-7.62,1.66H128.55c-1,0-1.33.33-1.33,1.33v17.57c0,3-.66,3.65-4,4H111c-2.32,0-3-1-3-3C108,286.94,108,275.34,108,263.4Zm19.23-11.6v6.3c0,1.66.66,2,2,2a36,36,0,0,0,6-.33c2.32-.33,3.31-1.33,3.31-3.65v-8.95a3.32,3.32,0,0,0-3.65-3.65h-6.63c-1,0-1.33.33-1.33,1.33A49,49,0,0,1,127.23,251.8Z"/><path class="cls-2" d="M306.55,272.35v26.19c0,2.32-1,3.31-3.31,3.31H291c-2.32,0-3.31-1-3.31-3.65V245.84c0-2.32,0-2.32-2.32-2.32H279.7a2.64,2.64,0,0,1-3-3v-12.6c0-2.65,1-3.65,3.65-3.65a23.08,23.08,0,0,0,8.29-1.66c3.31-1.66,5.3-4.31,7.29-7,1.66-2,3-4.31,5.3-5.3,3-1.66,5,.33,5,3-.33,3.31,0,6.63,0,9.94,0,1,.33,1.33,1.33,1.33h5.63c2.32,0,3.31,1.33,3.31,3.65V240.2c0,2.65-1,3.65-3.65,3.65h-5.3c-1,0-1.33.33-1.33,1.33C306.55,254.12,306.55,263.07,306.55,272.35Z"/></svg>