<svg id="Layer_1" data-name="Layer 1" xmlns="http://www.w3.org/2000/svg" xmlns:xlink="http://www.w3.org/1999/xlink" viewBox="0 0 512 512"><defs><style>.cls-1{fill:#f0efeb;}.cls-2{fill:url(#linear-gradient);}</style><linearGradient id="linear-gradient" x1="-2444.44" y1="780.72" x2="-2443.81" y2="779.52" gradientTransform="matrix(226.77, 0, 0, -77.46, 554515.95, 60682.4)" gradientUnits="userSpaceOnUse"><stop offset="0" stop-color="#6b195f"/><stop offset="1" stop-color="#4c255b"/></linearGradient></defs><title>rounded_icons2</title><circle class="cls-1" cx="256" cy="256" r="256"/><g id="Page-1"><g id="skrill-logo-web-1-rgb"><path id="Fill-1" class="cls-2" d="M315.69,231.42a11.39,11.39,0,0,0,11.24-11.24,11.09,11.09,0,0,0-11.24-11.24,11.24,11.24,0,1,0,0,22.47ZM230,238a77.57,77.57,0,0,1-13.11,22.47V214.57l-23.41,4.68v82.86h23.41V276.36c6.55,10.3,10.3,25.75,10.3,25.75H255.3c-2.81-11.7-15-33.24-15-33.24,10.77-14,15.92-28.56,16.39-30.9Zm61.33-.94c-20.6.94-31.83,10.3-31.83,29v36h23.41V272.62c0-11.24,1.87-15.92,14.51-16.39V237.51c-2.34-.94-6.09-.47-6.09-.47Zm-137.64,10.3c-2.81,0-9.83-.47-9.83-6.55,0-7,9.83-7,13.11-7,6.09,0,14.51,1.87,20.6,3.75,0,0,3.28,1.4,6.09,2.34h.47V219.72h-.47c-6.55-2.34-15-4.68-30-4.68-25.28,0-34.64,15.45-34.64,28.09,0,7.49,3.28,24.81,32.77,26.69,2.34,0,9.36.47,9.36,6.55,0,5.15-5.62,8-14.51,8-10.3,0-19.66-2.34-25.75-5.15v20.6c8.9,2.34,18.73,3.28,30.43,3.28,25.28,0,36.52-14,36.52-28.09-.47-15.92-13.11-26.69-34.18-27.62Zm150.75,54.77h22.47V238H304.45Zm66-83.33v83.33h22.47V214.57l-22.47,4.21Zm-33.71,0,22.47-4.21v87.55H336.76V218.78Z"/></g></g></svg>